<?xml version="1.0" encoding="UTF-8"?>
<!DOCTYPE svg PUBLIC "-//W3C//DTD SVG 1.1//EN" "http://www.w3.org/Graphics/SVG/1.1/DTD/svg11.dtd">
<!-- Creator: CorelDRAW 2020 (64-Bit) -->
<svg xmlns="http://www.w3.org/2000/svg" xml:space="preserve" width="211.667mm" height="211.667mm" version="1.1" style="shape-rendering:geometricPrecision; text-rendering:geometricPrecision; image-rendering:optimizeQuality; fill-rule:evenodd; clip-rule:evenodd"
viewBox="0 0 21166.66 21166.66"
 xmlns:xlink="http://www.w3.org/1999/xlink"
 xmlns:xodm="http://www.corel.com/coreldraw/odm/2003">
 <defs>
  <style type="text/css">
   <![CDATA[
    .str0 {stroke:#FEFEFE;stroke-width:20;stroke-miterlimit:22.9256}
    .fil0 {fill:#FEFEFE}
    .fil1 {fill:#FF7D7D;fill-rule:nonzero}
   ]]>
  </style>
 </defs>
 <g id="Слой_x0020_1">
  <metadata id="CorelCorpID_0Corel-Layer"/>
  <rect class="fil0 str0" x="3567.46" y="2980.45" width="14442.23" height="14866.99"/>
  <g id="_2217528609936">
   <path class="fil1" d="M17197.91 0l-13229.16 0c-2192.38,0 -3968.75,1776.37 -3968.75,3968.75l0 13229.17c0,2192.37 1776.37,3968.74 3968.75,3968.74l13229.16 0c2192.38,0 3968.75,-1776.37 3968.75,-3968.75l0 -13229.16c0,-2192.38 -1776.37,-3968.75 -3968.75,-3968.75zm-1909.07 14160.5l-1129.97 1129.16c-206.78,207.6 -545.45,207.6 -752.23,0l-2823.31 -2823.31 -2822.49 2822.49c-207.6,207.6 -545.45,207.6 -753.04,-1.63l-1129.98 -1126.71c-205.97,-208.41 -205.97,-544.63 0,-753.86l2823.31 -2822.49 -2822.5 -2822.5c-206.78,-208.41 -206.78,-547.08 0,-753.04l1129.97 -1129.97c207.6,-209.22 546.26,-209.22 753.04,0l2821.69 2823.3 2823.31 -2823.31c207.6,-209.22 546.26,-209.22 752.23,0l1129.97 1128.35c206.78,207.6 206.78,546.26 0.81,754.67l-2823.31 2822.49 2823.31 2822.49c205.16,209.23 205.16,545.46 -0.81,753.87z"/>
  </g>
 </g>
</svg>
