<svg width="445.962" height="445.962" xmlns="http://www.w3.org/2000/svg">

 <g>
  <title>background</title>
  <rect fill="none" id="canvas_background" height="402" width="582" y="-1" x="-1"/>
 </g>
 <g>
  <title>Layer 1</title>
  <g id="svg_1">
   <path fill="#ffffff" id="svg_2" d="m336.055,173.98l-141.666,0l-10.324,-70.317c-2.397,-16.325 -17.858,-29.682 -34.358,-29.682l-123.75,0c-16.5,0 -28.039,13.357 -25.642,29.682l39.392,268.317l367.5,0l-35.047,-168.628c-3.358,-16.155 -19.605,-29.372 -36.105,-29.372z"/>
   <path fill="#ffffff" id="svg_3" d="m420.354,103.981l-205.92,0l5.872,39.999l115.75,0c14.855,0 29.74,5.454 41.913,15.357c12.173,9.903 20.541,23.367 23.564,37.911l19.05,91.658l25.002,-155.306c2.623,-16.29 -8.731,-29.619 -25.231,-29.619z"/>
  </g>
  <g id="svg_4"/>
  <g id="svg_5"/>
  <g id="svg_6"/>
  <g id="svg_7"/>
  <g id="svg_8"/>
  <g id="svg_9"/>
  <g id="svg_10"/>
  <g id="svg_11"/>
  <g id="svg_12"/>
  <g id="svg_13"/>
  <g id="svg_14"/>
  <g id="svg_15"/>
  <g id="svg_16"/>
  <g id="svg_17"/>
  <g id="svg_18"/>
 </g>
</svg>