<?xml version="1.0" encoding="utf-8"?>
<!-- Generator: Adobe Illustrator 22.1.0, SVG Export Plug-In . SVG Version: 6.00 Build 0)  -->
<svg version="1.1" id="Слой_1" xmlns="http://www.w3.org/2000/svg" xmlns:xlink="http://www.w3.org/1999/xlink" x="0px" y="0px"
	 viewBox="0 0 200 200" style="enable-background:new 0 0 200 200;" xml:space="preserve">
<style type="text/css">
	.st0{fill:#0A0B09;}
	.st1{opacity:0.75;fill:none;stroke:#A57130;stroke-width:10;stroke-miterlimit:10;enable-background:new    ;}
	.st2{fill:#FE9B00;}
	.st3{fill:#F99900;}
</style>
<ellipse class="st0" cx="100" cy="100" rx="72.7" ry="73.1"/>
<ellipse class="st1" cx="100" cy="100" rx="68" ry="68"/>
<path class="st2" d="M39.9,164.6l9.6-7.7l-9.6-9.1l-9.4,4.6c-3.1-6.3-6.2-12.4-9.5-19.1l9.7-2.4c-8.5-20.4-8.6-40.9,0-61.4l-9.6-2.4
	L30.4,48l10.4,4.8l8.6-9.3l-9.5-7.8l10.8-12.8L61,35l10.5-4.9C70,23.9,66.6,19,64.4,12.7L80.8,6c0.8,7,1.6,13.5,2.5,20.4
	c10.7-2.2,21.5-2.4,32.2-0.4l2.4-19.9l17,6.5l-7.2,16.5c3.5,1.5,6.8,3.2,11,5.1l9.7-11.9l11,13.3l-7.8,6.6l9,9.6l8.2-4.1l9.2,18.7
	c-2.4,2-5.4,0.8-7.5,3.2c8.5,20.1,8.5,40.5,0,60.8c2.1,2.4,5,1.3,7.4,3.2l-9.2,18.7l-9.2-4.4l-7.7,10.5c1.8,1.4,4.5,3.6,7.4,6.1
	L148,178l-9.4-12.3l-11.2,5.1l7.2,16.5L118,194l-2.4-20c-10.7,1.8-21.5,1.7-32.2-0.4c-0.8,6.8-1.6,13.1-2.4,20.3l-16.8-6.4l7.4-17.3
	l-9.8-4.9l-10.5,12.5L39.9,164.6z M171.9,100.3c0.4-14.6-3.9-28.8-11.9-39.9c-18.5-26-44.3-34.8-73.9-30.1
	C47,36.5,21.8,75.6,30.7,115.4c8.1,36.8,47.1,63.1,82.2,55.8C148.5,163.5,171.8,135.5,171.9,100.3L171.9,100.3z"/>
<rect x="84.3" y="134.5" class="st3" width="31.5" height="11.5"/>
<rect x="77.1" y="144.6" class="st3" width="45.7" height="11.5"/>
<rect x="54.3" y="84.2" class="st3" width="11.4" height="31.6"/>
<rect x="44.2" y="77" class="st3" width="11.4" height="46"/>
<rect x="134.3" y="84.2" class="st3" width="11.4" height="31.6"/>
<rect x="144.3" y="77" class="st3" width="11.4" height="46"/>
<rect x="84.3" y="54" class="st3" width="31.5" height="11.5"/>
<rect x="77.1" y="43.9" class="st3" width="45.7" height="11.5"/>
<ellipse class="st3" cx="100" cy="100" rx="36.1" ry="36.3"/>
<path class="st0" d="M138.3,99.9c0.2,21.1-16.8,38.4-37.9,38.6c-20.9,0.2-38-16.3-38.6-37.2v-1.6c0-21,17.3-38.2,38.3-38.1
	S138.3,78.8,138.3,99.9z M132.6,99.7c0-18.1-14.6-32.9-32.7-32.9S67.1,81.4,67,99.5c0,18.1,14.6,32.9,32.7,32.9l0,0
	C117.8,132.4,132.5,117.8,132.6,99.7L132.6,99.7z"/>
<path class="st3" d="M133,100.1c0,18.3-14.8,33.1-33,33.1S67.1,118.3,67.1,100s14.8-33.1,33-33.1l0,0C118.3,66.9,133,81.7,133,100.1
	z M108,129.9c3.7-0.7,4.1-1.3,3.4-4.8c-0.3-1.3-0.8-2.5-1.1-3.8c-0.2-0.7-0.5-1.4,0.2-2.1c0.6-0.6,1.1,0,1.6,0.2
	c3.1,0.9,6.3-0.8,6.3-3.6c0-1.6,0.5-3.2,1.5-4.4c0.7-1,2-2.2,0.8-3.7c-2.9-3.8-2.6-7.7-0.6-11.8c4-8.4,0.3-19.1-8-23.2
	c-3.6-1.8-7.4-2.9-11.3-3.3c-8.8-1-19.1,6.2-21.4,14.8c-1.2,4.7-0.2,9,1.4,13.4c1.1,3.2,1.9,6.5-0.6,9.6c-1.1,1.3-0.8,2.8-0.1,4.4
	c0.7,1.4,1.7,2.8,1.8,4.4c0,2.2,1.9,4.1,4.1,4l0,0c0.3,0,0.7,0,1-0.1c0.9-0.2,1.8-0.8,2.5,0.3s0.1,1.7-0.4,2.5
	c-1.7,2.6-0.3,6.4,2.3,7c0.8,0.2,1.4,0.2,1.3-0.9c0-0.7-0.3-1.8,1-1.7c1.5,0,0.8,1.1,0.7,1.8c-0.3,2,1.1,2,2.3,2
	c1.2,0,2.7,0.6,2.6-1.6c0-0.7-0.1-1.4,0.8-1.5c1-0.2,1,0.6,1,1.3c0,1.3,0.6,2.1,2,2s2.5-0.4,2.3-2.2c-0.1-1.1,0.6-1.2,1.4-1.3
	c0.9,0,1.1,0.6,1.1,1.3C107.9,129.1,107.9,129.5,108,129.9L108,129.9z"/>
<path class="st0" d="M107.7,129.2c0-0.4-0.1-0.9-0.1-1.3c0-0.7-0.2-1.3-1.1-1.3c-0.8,0-1.5,0.2-1.4,1.3c0.2,1.8-0.9,2.1-2.3,2.2
	c-1.3,0.1-2-0.7-2-2c0-0.7,0-1.4-1-1.3c-0.9,0.1-0.8,0.8-0.8,1.5c0.1,2.1-1.5,1.6-2.6,1.6s-2.7,0-2.3-2c0.1-0.7,0.8-1.7-0.7-1.8
	c-1.4,0-1,1-1,1.7c0,1.1-0.5,1.1-1.3,0.9c-2.7-0.7-3.9-4.3-2.3-7c0.5-0.8,1.2-1.4,0.4-2.5c-0.8-1-1.6-0.6-2.5-0.3
	c-2.1,0.6-4.3-0.7-4.9-2.8c-0.1-0.3-0.1-0.7-0.1-1c0-1.7-1.1-3-1.8-4.4c-0.8-1.5-0.9-3,0.1-4.3c2.5-3.1,1.8-6.3,0.6-9.5
	c-1.6-4.3-2.6-8.6-1.4-13.2c2.3-8.5,12.6-15.6,21.3-14.6c3.9,0.4,7.7,1.6,11.2,3.3c8.3,4.1,12,14.6,8,23c-1.9,4.1-2.3,7.9,0.6,11.7
	c1.2,1.5,0,2.7-0.8,3.7c-1,1.2-1.5,2.8-1.5,4.4c0,2.8-3.2,4.5-6.3,3.6c-0.5-0.2-1-0.7-1.6-0.2c-0.6,0.6-0.3,1.3-0.2,2.1
	c0.3,1.3,0.8,2.5,1.1,3.8C111.9,127.9,111.4,128.5,107.7,129.2z M110.7,113.2c2.7,0.1,4.1-1.3,4.3-4.3c0.1-1.2,0.9-2.6-0.7-3.5
	c-1.5-0.8-2.8-1.2-4.5,0c-1,0.8-2.4,1-3.7,1.3c-1.2,0.3-2.3,0.9-3.2,1.8c-0.8,0.7-0.7,1.1,0.1,1.7
	C105.3,111.9,107.9,112.9,110.7,113.2L110.7,113.2z M88.7,113.1c2.1,0,4.8-1.1,7-2.8c0.5-0.4,1.4-0.9,1.1-1.7
	c-0.3-1-1.1-1.6-2.1-1.6c-2.4,0.1-4.4-0.9-6.3-2.1c-0.7-0.5-1.6-0.6-2.4-0.1c-2,1-2.3,2.7-2,4.6C84.5,111.8,86.2,113.1,88.7,113.1
	L88.7,113.1z M97.3,118c0.2,0,0.3,0,0.4-0.1c1-0.9,1.9-1.6,3.2-0.3c0.3,0.3,1.1,0,1.6-0.5c0.4-0.4,0.4-1,0.1-1.4
	c-0.8-1.4-1.6-3.2-3.1-3.5c-1.2-0.2-1.4,1.9-2.1,3c-0.3,0.6-0.6,1.1-0.8,1.8C96.4,117.6,96.7,117.9,97.3,118L97.3,118z"/>
<path class="st3" d="M110.7,113.2c-2.8-0.3-5.4-1.4-7.7-3.1c-0.8-0.6-0.8-1-0.1-1.7c0.9-0.8,2-1.4,3.2-1.8c1.3-0.3,2.7-0.6,3.7-1.3
	c1.6-1.1,3-0.7,4.5,0c1.7,0.9,0.8,2.3,0.7,3.5C114.8,111.9,113.5,113.3,110.7,113.2z"/>
<path class="st3" d="M88.7,113.1c-2.5,0-4.2-1.3-4.7-3.7c-0.4-1.9,0-3.6,2-4.6c0.7-0.5,1.7-0.4,2.4,0.1c1.9,1.3,3.9,2.2,6.3,2.1
	c1,0,1.9,0.6,2.1,1.6c0.3,0.9-0.5,1.3-1.1,1.7C93.6,112,90.8,113.1,88.7,113.1z"/>
<path class="st3" d="M97.3,118c-0.6-0.1-0.9-0.4-0.7-1s0.5-1.2,0.8-1.8c0.7-1,0.8-3.2,2.1-3c1.4,0.3,2.2,2.1,3.1,3.5
	c0.3,0.4,0.3,1-0.1,1.4c-0.4,0.5-1.2,0.8-1.6,0.5c-1.3-1.3-2.2-0.6-3.2,0.3C97.6,117.9,97.5,117.9,97.3,118z"/>
<polygon class="st3" points="76.7,123.4 72.3,118 58.5,141.7 82.1,127.8 "/>
<polygon class="st3" points="123.3,123.4 127.6,118 141.5,141.7 118,127.8 "/>
<polygon class="st3" points="123.3,76.5 117.9,72.2 141.5,58.3 127.6,81.9 "/>
<polygon class="st3" points="76.6,76.5 81.8,72.2 58.5,58.3 72.4,81.7 "/>
<polygon class="st3" points="81.8,72.2 82,72.4 81.6,72.4 81.5,72.4 "/>
<polygon class="st3" points="72.4,81.7 78.9,79.3 81.8,72.2 74.5,74.8 "/>
<polygon class="st3" points="72.3,118 73.6,126.8 82.1,127.8 78.7,117.8 "/>
<polygon class="st3" points="118,127.8 125,125.9 127.6,118 122.1,118 "/>
<polygon class="st3" points="127.6,81.9 120.3,78.6 117.9,72.2 125.6,73.6 "/>
</svg>
