<?xml version="1.0" encoding="utf-8"?>
<!-- Generator: Adobe Illustrator 22.1.0, SVG Export Plug-In . SVG Version: 6.00 Build 0)  -->
<svg version="1.1" id="Слой_1" xmlns="http://www.w3.org/2000/svg" xmlns:xlink="http://www.w3.org/1999/xlink" x="0px" y="0px"
	 viewBox="0 0 200 200" style="enable-background:new 0 0 200 200;" xml:space="preserve">
<style type="text/css">
	.st0{fill:#FE9B00;stroke:#724C07;stroke-width:2;stroke-linecap:round;stroke-linejoin:round;stroke-miterlimit:10;}
	.st1{fill:#0A0B09;}
	.st2{opacity:0.75;fill:none;stroke:#A57130;stroke-width:10;stroke-miterlimit:10;enable-background:new    ;}
	.st3{fill:#FE9B00;}
	.st4{fill:#F99900;}
</style>
<ellipse cx="101.7" cy="96.9" rx="77.5" ry="77.5"/>
<path class="st0" d="M52.1,164.9c-1.5-2.7-3.7-1.9-5.3-1.8c-10.1,1.3-17.5-3.7-24.1-10.4c-0.9-0.9-2.1-2-1.6-3.5
	c0.6-1.9,2.4-1.6,3.9-1.5c2.9,0.1,5.7,0.3,8.8,0.4c-1.1-3-3.5-2.8-4.9-3.3c-8.1-2.8-14-8-18-15.8c-0.7-1.4-2.1-3.2-0.8-4.6
	c1.2-1.4,3.1-0.5,4.5,0.1l7.3,2.9c0-3.6-2.6-4.1-4.1-5.2c-6.9-4.9-11.4-12.3-12.5-20.3c-0.2-1.4-0.5-3.3,0.9-4.2
	c1.6-1,2.6,0.8,3.8,1.6c2,1.2,3.9,2.5,6,3.9c1-3.4-1.6-5-3-6.9c-4.8-6.1-6.9-13.6-6-21.1c0.2-1.6,0.4-3.7,2.4-4.1
	c1.6-0.4,2.4,1.5,3.3,2.7c1.6,1.9,3.1,3.8,4.8,6.1c1.4-3.4-0.1-5.6-1.1-7.7c-3.7-7.9-2.2-15.5,1.1-23.2c0.5-1.2,1-2.8,2.6-2.9
	c1.6-0.1,1.8,1.8,2.5,2.8c1.4,2.6,1.8,5.5,4.1,7.8c1.3-2.2,0.5-4,0.3-5.6c-1.3-9.6,2.8-17.1,8.1-24c0.8-1,2-2.3,3.4-1.8
	c1.4,0.6,1.2,2.3,1.2,3.6c0.1,3.5,0,6.9,0,10.6c3.1-0.6,2.5-2.9,2.6-4.4c0.8-9.6,6-16.2,12.8-22c1.4-1.2,3-3,4.6-1.6
	c1.7,1.2,0.8,3.4,0.4,5.2c-0.7,2.9-1.6,5.7-2.6,10c28.7-14.7,56.7-14.9,85.1-0.5c0.1-3.4-1.3-6.3-2.1-9.5c-0.4-1.9-1.4-3.8,0.5-5.1
	c1.9-1.3,3.5,0.2,4.7,1.4c6.9,6.1,12.7,12.9,12.6,23.1c0,1.2,0.1,2.4,2.1,2.8c0.2-3.1,0.4-6.2,0.7-9.2c0.1-1.2,0-2.9,1.6-3.4
	c1.3-0.5,2.4,0.5,3.3,1.5c5.3,6.8,8.9,14.1,7.5,23.2c-0.4,2.6-1.7,5.2,0.8,7.9c1.2-3.3,2.4-6.3,3.5-9.3c0.5-1.2,0.9-2.9,2.4-3
	c1.8-0.2,2.5,1.6,3,3c3.4,7.7,4.5,15.5,0.6,23.5c-1.1,2.3-2.9,4.5-1.5,7.5c2.8-2,4.2-4.8,5.9-7.3c0.8-1,1.4-2.6,3.1-2.3
	c2,0.3,2,2.2,2.2,3.6c1.1,8.5-0.8,16-6,22.9c-1.5,2-3.9,3.7-3.5,7.2c2.4-1.5,4.3-3,6.3-4.2c1-0.6,2.1-2.1,3.5-1.1
	c1.4,0.9,1.4,2.6,1.2,4.1c-1,7.6-4.4,13.7-10.6,18.3c-2.4,1.8-5.1,2.9-6.6,6.9c3.2-1.2,5.5-2.2,7.8-3.1c1.6-0.6,3.6-2,4.8-0.2
	c1.4,1.9,0,3.6-0.9,5.1c-4.4,7.5-10.2,13.3-18.9,15.3c-1.2,0.4-2.5,0.8-3.7,1.4c-0.2,0.1-0.2,0.6-0.5,1.3c3.2,0.6,6.1-0.2,8.9-0.2
	c1.3,0,2.9-0.3,3.5,1.2s-0.3,2.7-1.1,3.6c-6.2,6.8-13.3,11.6-22.9,10.6c-2.4-0.3-4.8-1.3-6.9,1.5c3.9,0.8,7.3,1.6,11,2.5
	c1.4,0.4,3.3,0.6,3.5,2.4c0.2,1.5-1.3,2.3-2.5,2.9c-8.3,4.6-17,7.7-26.3,2.9c-2.2-1.1-4.4-2.3-6.9,0c2.6,2.7,5.8,3.3,8.6,4.8
	c1.8,1,4.6,1.5,4.4,4c-0.3,2.3-3.2,2.6-5,3.2c-8.1,2.9-15.3,0.3-21.9-4.5c-7-5.3-17.1-5.3-24.1-0.1c-7.6,5.4-15.7,7.7-24.7,3.7
	c-1.2-0.6-2.8-0.7-2.8-2.5c0-1.3,1.3-1.9,2.3-2.5c3.8-2,7.4-3.9,11.3-5.7c-2.7-2.6-5.1-1.5-7.5-0.2c-9.3,4.7-17.7,1.9-25.8-3
	c-1.1-0.6-2.6-1.3-2.3-3c0.3-1.8,1.8-1.9,3.1-2.3C45,166.4,48.6,165.7,52.1,164.9z M176,97.5c0.2-42.7-33.1-76.8-75.5-76.9
	C58.8,20.4,25,54.2,24.9,96.4c-0.1,42.2,33.6,76.5,75.4,76.7C142.4,173.1,175.8,139.8,176,97.5z"/>
<ellipse class="st1" cx="100.7" cy="96.8" rx="55.6" ry="54.4"/>
<ellipse class="st2" cx="100.7" cy="96.8" rx="52" ry="50.6"/>
<path class="st3" d="M54.7,144.9l7.3-5.7l-7.3-6.8l-7.2,3.4c-2.4-4.7-4.7-9.3-7.3-14.2l7.4-1.8c-6.5-15.2-6.6-30.5,0-45.8l-7.4-1.8
	L47.3,58l8,3.6l6.6-6.9l-7.2-5.8l8.3-9.6l7.9,9.1l8-3.7c-1.1-4.6-3.8-8.3-5.4-13l12.5-5c0.6,5.2,1.2,10.1,1.9,15.2
	c8.2-1.7,16.4-1.8,24.6-0.3l1.8-14.8l13,4.8L121.7,44c2.7,1.1,5.2,2.4,8.4,3.8l7.4-8.8l8.4,9.9l-6,4.9l6.9,7.2l6.3-3l7,13.9
	c-1.8,1.5-4.1,0.6-5.8,2.4c6.5,14.9,6.5,30.2,0,45.3c1.6,1.8,3.8,0.9,5.7,2.4l-7,13.9l-7.1-3.3l-5.9,7.8c1.3,1.1,3.4,2.7,5.7,4.5
	l-8.4,10l-7.2-9.2l-8.5,3.8l5.5,12.3l-12.7,5l-1.7-14.9c-8.2,1.4-16.4,1.3-24.6-0.3c-0.6,5-1.2,9.8-1.8,15.1L73.5,162l5.7-12.9
	l-7.5-3.7l-8,9.3L54.7,144.9z M155.6,97c0.3-10.8-3-21.5-9.1-29.7C132.4,47.9,112.7,41.4,90,44.9c-29.9,4.6-49.2,33.8-42.4,63.4
	c6.2,27.4,36.1,47,62.9,41.5C137.8,144.1,155.6,123.2,155.6,97L155.6,97z"/>
<rect x="88.7" y="122.5" class="st4" width="24.1" height="8.6"/>
<rect x="83.1" y="130" class="st4" width="35" height="8.6"/>
<rect x="65.7" y="85" class="st4" width="8.7" height="23.5"/>
<rect x="58" y="79.6" class="st4" width="8.7" height="34.3"/>
<rect x="126.9" y="85" class="st4" width="8.7" height="23.5"/>
<rect x="134.6" y="79.6" class="st4" width="8.7" height="34.3"/>
<rect x="88.7" y="62.5" class="st4" width="24.1" height="8.6"/>
<rect x="83.1" y="55" class="st4" width="35" height="8.6"/>
<ellipse class="st4" cx="100.7" cy="96.8" rx="27.6" ry="27"/>
<path class="st1" d="M130,96.7c0.2,15.7-12.9,28.6-29,28.7c-16,0.1-29.1-12.1-29.5-27.7v-1.2c-0.1-15.6,13.2-28.4,29.2-28.3
	S130,81,130,96.7z M125.6,96.6c0-13.5-11.2-24.5-25-24.5S75.5,82.9,75.4,96.4c0,13.5,11.2,24.5,25,24.5l0,0
	C114.3,120.9,125.5,110,125.6,96.6L125.6,96.6z"/>
<path class="st4" d="M125.9,96.9c0,13.6-11.3,24.6-25.2,24.6s-25.2-11.1-25.2-24.7s11.3-24.7,25.2-24.7l0,0
	C114.7,72.1,125.9,83.1,125.9,96.9z M106.8,119c2.8-0.5,3.1-1,2.6-3.6c-0.2-1-0.6-1.9-0.8-2.8c-0.2-0.5-0.4-1,0.2-1.6
	c0.5-0.4,0.8,0,1.2,0.1c2.4,0.7,4.8-0.6,4.8-2.7c0-1.2,0.4-2.4,1.1-3.3c0.5-0.7,1.5-1.6,0.6-2.8c-2.2-2.8-2-5.7-0.5-8.8
	c3.1-6.3,0.2-14.2-6.1-17.3c-2.8-1.3-5.7-2.2-8.6-2.5c-6.7-0.7-14.6,4.6-16.4,11c-0.9,3.5-0.2,6.7,1.1,10c0.8,2.4,1.5,4.8-0.5,7.1
	c-0.8,1-0.6,2.1-0.1,3.3c0.5,1,1.3,2.1,1.4,3.3c0,1.6,1.5,3.1,3.1,3l0,0c0.2,0,0.5,0,0.8-0.1c0.7-0.1,1.4-0.6,1.9,0.2
	c0.5,0.8,0.1,1.3-0.3,1.9c-1.3,1.9-0.2,4.8,1.8,5.2c0.6,0.1,1.1,0.1,1-0.7c0-0.5-0.2-1.3,0.8-1.3c1.1,0,0.6,0.8,0.5,1.3
	c-0.2,1.5,0.8,1.5,1.8,1.5c0.9,0,2.1,0.4,2-1.2c0-0.5-0.1-1,0.6-1.1c0.8-0.1,0.8,0.4,0.8,1c0,1,0.5,1.6,1.5,1.5
	c1.1-0.1,1.9-0.3,1.8-1.6c-0.1-0.8,0.5-0.9,1.1-1c0.7,0,0.8,0.4,0.8,1C106.7,118.4,106.7,118.7,106.8,119L106.8,119z"/>
<path class="st1" d="M106.6,118.5c0-0.3-0.1-0.7-0.1-1c0-0.5-0.2-1-0.8-1c-0.6,0-1.1,0.1-1.1,1c0.2,1.3-0.7,1.6-1.8,1.6
	c-1,0.1-1.5-0.5-1.5-1.5c0-0.5,0-1-0.8-1c-0.7,0.1-0.6,0.6-0.6,1.1c0.1,1.6-1.1,1.2-2,1.2c-0.8,0-2.1,0-1.8-1.5
	c0.1-0.5,0.6-1.3-0.5-1.3s-0.8,0.7-0.8,1.3c0,0.8-0.4,0.8-1,0.7c-2.1-0.5-3-3.2-1.8-5.2c0.4-0.6,0.9-1,0.3-1.9
	c-0.6-0.7-1.2-0.4-1.9-0.2c-1.6,0.4-3.3-0.5-3.7-2.1c-0.1-0.2-0.1-0.5-0.1-0.7c0-1.3-0.8-2.2-1.4-3.3c-0.6-1.1-0.7-2.2,0.1-3.2
	c1.9-2.3,1.4-4.7,0.5-7.1c-1.2-3.2-2-6.4-1.1-9.8c1.8-6.3,9.6-11.6,16.3-10.9c3,0.3,5.9,1.2,8.6,2.5c6.4,3.1,9.2,10.9,6.1,17.1
	c-1.5,3.1-1.8,5.9,0.5,8.7c0.9,1.1,0,2-0.6,2.8c-0.8,0.9-1.1,2.1-1.1,3.3c0,2.1-2.4,3.4-4.8,2.7c-0.4-0.1-0.8-0.5-1.2-0.1
	c-0.5,0.4-0.2,1-0.2,1.6c0.2,1,0.6,1.9,0.8,2.8C109.8,117.6,109.4,118,106.6,118.5z M108.9,106.6c2.1,0.1,3.1-1,3.3-3.2
	c0.1-0.9,0.7-1.9-0.5-2.6c-1.1-0.6-2.1-0.9-3.4,0c-0.8,0.6-1.8,0.7-2.8,1c-0.9,0.2-1.8,0.7-2.4,1.3c-0.6,0.5-0.5,0.8,0.1,1.3
	C104.7,105.6,106.7,106.4,108.9,106.6L108.9,106.6z M92,106.5c1.6,0,3.7-0.8,5.4-2.1c0.4-0.3,1.1-0.7,0.8-1.3
	c-0.2-0.7-0.8-1.2-1.6-1.2c-1.8,0.1-3.4-0.7-4.8-1.6c-0.5-0.4-1.2-0.4-1.8-0.1c-1.5,0.7-1.8,2-1.5,3.4
	C88.8,105.6,90.1,106.5,92,106.5L92,106.5z M98.6,110.2c0.2,0,0.2,0,0.3-0.1c0.8-0.7,1.5-1.2,2.4-0.2c0.2,0.2,0.8,0,1.2-0.4
	c0.3-0.3,0.3-0.7,0.1-1c-0.6-1-1.2-2.4-2.4-2.6c-0.9-0.1-1.1,1.4-1.6,2.2c-0.2,0.4-0.5,0.8-0.6,1.3
	C97.9,109.9,98.1,110.1,98.6,110.2L98.6,110.2z"/>
<path class="st4" d="M108.9,106.6c-2.1-0.2-4.1-1-5.9-2.3c-0.6-0.4-0.6-0.7-0.1-1.3c0.7-0.6,1.5-1,2.4-1.3c1-0.2,2.1-0.4,2.8-1
	c1.2-0.8,2.3-0.5,3.4,0c1.3,0.7,0.6,1.7,0.5,2.6C112,105.6,111,106.7,108.9,106.6z"/>
<path class="st4" d="M92,106.5c-1.9,0-3.2-1-3.6-2.8c-0.3-1.4,0-2.7,1.5-3.4c0.5-0.4,1.3-0.3,1.8,0.1c1.5,1,3,1.6,4.8,1.6
	c0.8,0,1.5,0.4,1.6,1.2c0.2,0.7-0.4,1-0.8,1.3C95.8,105.7,93.6,106.5,92,106.5z"/>
<path class="st4" d="M98.6,110.2c-0.5-0.1-0.7-0.3-0.5-0.7c0.2-0.4,0.4-0.9,0.6-1.3c0.5-0.7,0.6-2.4,1.6-2.2
	c1.1,0.2,1.7,1.6,2.4,2.6c0.2,0.3,0.2,0.7-0.1,1c-0.3,0.4-0.9,0.6-1.2,0.4c-1-1-1.7-0.4-2.4,0.2C98.8,110.1,98.8,110.1,98.6,110.2z"
	/>
<polygon class="st4" points="82.8,114.2 79.5,110.2 68.9,127.8 87,117.5 "/>
<polygon class="st4" points="118.5,114.2 121.8,110.2 132.4,127.8 114.4,117.5 "/>
<polygon class="st4" points="118.5,79.3 114.4,76.1 132.4,65.7 121.8,83.3 "/>
<polygon class="st4" points="82.8,79.3 86.7,76.1 68.9,65.7 79.5,83.1 "/>
<polygon class="st4" points="86.7,76.1 86.9,76.2 86.6,76.3 86.5,76.2 "/>
<polygon class="st4" points="79.5,83.1 84.5,81.4 86.7,76.1 81.1,78 "/>
<polygon class="st4" points="79.5,110.2 80.5,116.7 87,117.5 84.3,110 "/>
<polygon class="st4" points="114.4,117.5 119.8,116.1 121.8,110.2 117.6,110.2 "/>
<polygon class="st4" points="121.8,83.3 116.2,80.8 114.4,76.1 120.2,77.1 "/>
</svg>
