<?xml version="1.0" encoding="utf-8"?>
<!-- Generator: Adobe Illustrator 22.1.0, SVG Export Plug-In . SVG Version: 6.00 Build 0)  -->
<svg version="1.1" id="Слой_1" xmlns="http://www.w3.org/2000/svg" xmlns:xlink="http://www.w3.org/1999/xlink" x="0px" y="0px"
	 viewBox="0 0 200.7 200.7" style="enable-background:new 0 0 200.7 200.7;" xml:space="preserve">
<style type="text/css">
	.st0{fill:#0A0B09;}
	.st1{fill:#F99900;stroke:#000000;stroke-width:2;stroke-miterlimit:10;}
	.st2{fill:#F99900;}
</style>
<title>Монтажная область 1</title>
<path class="st0" d="M190.4,100.1c0.5,49.4-39.4,89.9-89.2,90.3c-49,0.5-89.5-38.2-90.8-87v-3.8c0.1-49.1,40.7-89.3,90.1-89.2
	C150,10.5,190.5,50.9,190.4,100.1z M177.1,99.7c0.1-42.4-34.3-76.9-76.9-77c-42.6-0.1-77.3,34.2-77.4,76.6
	c-0.1,42.3,34.3,76.9,76.9,77l0,0C142.4,176.3,176.9,142,177.1,99.7L177.1,99.7z"/>
<polygon class="st1" points="48.8,151.9 37.8,138.4 2.9,197.9 62.4,162.9 "/>
<polygon class="st1" points="152.7,152.7 163.5,139.4 197.9,197.9 139.4,163.5 "/>
<polygon class="st1" points="153.8,46.9 140.5,36.4 197.9,2.9 164.3,59.9 "/>
<polyline class="st1" points="59.2,36.3 2.9,2.9 36.3,59.2 "/>
<ellipse class="st2" cx="99.9" cy="99.5" rx="77.2" ry="76.8"/>
<path class="st2" d="M177.9,100.5c-0.1,42.8-34.8,77.5-77.6,77.4S22.8,143,22.9,100.3c0.1-42.7,34.8-77.5,77.6-77.4l0,0
	C143.5,22.9,178,57.7,177.9,100.5z M119.2,170.3c8.7-1.7,9.8-3.1,8-11.3c-0.7-3-1.8-5.8-2.6-8.9c-0.4-1.7-1.2-3.4,0.4-4.9
	c1.3-1.3,2.5,0.1,3.8,0.4c7.4,2.2,14.8-1.9,14.8-8.5c0-3.8,1.2-7.4,3.5-10.3c1.7-2.4,4.7-5.1,1.8-8.7c-6.9-8.9-6.1-17.9-1.4-27.5
	c9.4-19.7,0.7-44.6-18.9-54.3c-8.4-4.2-17.4-6.8-26.6-7.8C81.4,26.2,57,43,51.6,63.1c-2.9,10.9-0.4,21.1,3.3,31.3
	c2.7,7.5,4.5,15.2-1.4,22.4c-2.5,3.1-2,6.5-0.3,10.2c1.6,3.3,4.1,6.4,4.2,10.4c0.1,5.2,4.4,9.5,9.7,9.4l0,0c0.8,0,1.6-0.1,2.3-0.3
	c2.1-0.5,4.2-1.8,6,0.7s0.3,4.1-0.9,5.8c-3.9,6-0.8,14.9,5.5,16.4c2,0.5,3.3,0.4,3.1-2.2c0-1.7-0.8-4.2,2.4-4.1
	c3.5,0.1,2,2.5,1.7,4.2c-0.8,4.7,2.7,4.7,5.5,4.8s6.4,1.4,6.1-3.8c-0.1-1.6-0.2-3.2,1.9-3.5c2.4-0.4,2.3,1.5,2.4,3
	c0.1,3.1,1.4,5,4.8,4.8s5.9-1,5.4-5.2c-0.3-2.5,1.3-2.9,3.3-3c2.2-0.1,2.5,1.4,2.6,3C118.9,168.4,119,169.3,119.2,170.3L119.2,170.3
	z"/>
<path class="st0" d="M118.6,168.7c-0.1-1-0.3-2.1-0.3-2.9c-0.1-1.7-0.5-3-2.6-2.9c-1.9,0.1-3.6,0.5-3.3,2.9c0.5,4.1-2.2,4.9-5.3,5.1
	c-3.1,0.2-4.7-1.7-4.8-4.7c0-1.6,0-3.2-2.4-2.9c-2.2,0.3-2,2-1.9,3.4c0.3,4.9-3.5,3.8-6,3.7c-2.6-0.1-6.2-0.1-5.4-4.7
	c0.3-1.7,1.8-3.9-1.7-4.1c-3.3-0.1-2.4,2.3-2.4,4c0.1,2.6-1.1,2.6-3.1,2.2c-6.3-1.6-9.2-10.1-5.4-16.3c1.2-1.9,2.8-3.3,0.9-5.8
	S71,144.3,69,145c-5,1.5-10.2-1.6-11.6-6.6c-0.2-0.8-0.3-1.7-0.3-2.5c-0.1-4-2.5-7.1-4.2-10.3c-1.8-3.5-2.2-7.1,0.3-10.1
	c5.8-7.2,4.2-14.7,1.4-22.2c-3.7-10.1-6.1-20.1-3.3-31c5.3-19.8,29.6-36.5,50-34.1c9.1,1,18.1,3.7,26.4,7.7
	c19.5,9.6,28.1,34.2,18.8,53.7c-4.6,9.5-5.4,18.5,1.4,27.3c2.8,3.5-0.1,6.3-1.8,8.6c-2.3,2.8-3.6,6.6-3.5,10.2
	c0,6.6-7.4,10.6-14.8,8.4c-1.3-0.4-2.4-1.7-3.8-0.4c-1.5,1.5-0.8,3.1-0.4,4.8c0.8,2.9,2,5.8,2.6,8.8
	C128.3,165.7,127.2,167.2,118.6,168.7z M125.6,131.4c6.4,0.2,9.6-3,10.2-10.1c0.3-2.8,2.2-6.2-1.7-8.1c-3.6-1.8-6.6-2.8-10.5-0.1
	c-2.4,1.8-5.6,2.4-8.6,3c-2.8,0.7-5.3,2.2-7.5,4.1c-1.8,1.6-1.6,2.6,0.2,4C112.9,128.1,119.1,130.6,125.6,131.4L125.6,131.4z
	 M73.9,131.1c4.9,0,11.4-2.5,16.4-6.5c1.3-1,3.3-2.1,2.5-4c-0.6-2.3-2.7-3.8-5-3.7c-5.5,0.2-10.3-2.2-14.8-5
	c-1.6-1.3-3.9-1.4-5.6-0.2c-4.8,2.4-5.4,6.3-4.7,10.7C64,128,68.1,131.1,73.9,131.1L73.9,131.1z M94,142.6c0.4-0.1,0.8,0,1-0.2
	c2.3-2.2,4.5-3.7,7.4-0.7c0.8,0.8,2.6-0.1,3.7-1.1c0.9-0.9,1-2.3,0.3-3.2c-1.9-3.2-3.9-7.5-7.2-8.1c-2.9-0.5-3.3,4.5-4.9,7
	c-0.8,1.4-1.4,2.6-1.9,4.2C91.9,141.5,92.6,142.2,94,142.6L94,142.6z"/>
<path class="st2" d="M125.6,131.4c-6.5-0.7-12.7-3.2-18-7.2c-1.8-1.4-2-2.5-0.2-4c2.1-2,4.8-3.3,7.5-4.1c3-0.6,6.2-1.4,8.6-3
	c3.9-2.6,7-1.7,10.5,0.1c4,2.1,2,5.3,1.7,8.1C135.1,128.3,132,131.6,125.6,131.4z"/>
<path class="st2" d="M73.9,131.1c-5.8,0-9.9-3-11-8.6c-0.9-4.5-0.1-8.3,4.7-10.7c1.7-1.1,4.1-1,5.6,0.2c4.5,2.9,9.2,5.2,14.8,5
	c2.3-0.1,4.4,1.5,5,3.7c0.7,2.1-1.2,2.9-2.5,4C85.3,128.5,78.7,131.1,73.9,131.1z"/>
<path class="st2" d="M94,142.6c-1.4-0.3-2.1-1-1.6-2.5s1.1-2.8,1.9-4.2c1.6-2.5,1.9-7.5,4.9-7c3.4,0.6,5.3,5,7.2,8.1
	c0.7,1,0.6,2.5-0.3,3.2c-1,1.1-2.8,2-3.7,1.1c-3-2.9-5.2-1.5-7.4,0.7C94.8,142.4,94.4,142.4,94,142.6z"/>
</svg>
