<?xml version="1.0" encoding="utf-8"?>
<!-- Generator: Adobe Illustrator 22.1.0, SVG Export Plug-In . SVG Version: 6.00 Build 0)  -->
<svg version="1.1" id="Слой_1" xmlns="http://www.w3.org/2000/svg" xmlns:xlink="http://www.w3.org/1999/xlink" x="0px" y="0px"
	 viewBox="0 0 200 200" style="enable-background:new 0 0 200 200;" xml:space="preserve">
<style type="text/css">
	.st0{fill:#FE9B00;}
</style>
<title>Монтажная область 1</title>
<ellipse class="st0" cx="98.4" cy="100" rx="85.8" ry="86.3"/>
<path d="M99.7,195C47.3,194.9,4.9,152.3,5,99.9S47.9,4.9,100.6,5c52.2,0.2,94.4,42.9,94.4,95.4C194.8,152.7,152.1,195.1,99.7,195z
	 M180.9,100.1c0.1-45.2-36.4-81.9-81.3-82S18.2,54.7,18.1,99.9c-0.1,45.2,36.4,81.9,81.3,82l0,0C144.3,182,180.8,145.3,180.9,100.1z
	"/>
<path class="st0" d="M180.9,100.1c-0.1,45.2-36.6,81.9-81.5,81.8s-81.4-36.8-81.3-82S54.7,18,99.6,18.1l0,0
	C144.5,18.2,180.9,54.9,180.9,100.1z M148.4,71.4c-0.1-16.6-5.9-26.6-16.2-34.1C121.5,29.5,109,27,96.1,28.1
	C77.5,29.7,62.6,37.7,54,55.2c-2.6,5.2-4.4,10.9-3.2,16.8C52,77.9,58,83,63.7,83.6c6.7,0.7,11.8-2.3,14.9-8.6c2.4-5,3.7-10.6,7-15.3
	c4.5-6.3,10.9-7.4,17.8-6.5c6.3,0.9,11.2,4,13.2,10.5c2.3,7.1-1.5,11.8-6.1,16.3c-5.3,5.3-11.2,10.3-16.5,15.6
	c-7.2,7.2-11.1,16-11,26.3c0,8.4,5.3,14.6,13,15.4c8,0.8,13.4-3.4,15.1-12.1c1.1-6.5,4.5-12.4,9.4-16.6c5.2-4.5,10.3-9.2,15.2-14
	C143.3,87.2,148.6,78.8,148.4,71.4z M98.3,173.2c9.6,0.1,16.6-6.7,16.7-16.2c0.3-9-6.7-16.5-15.5-16.8l0,0h-0.6
	c-9.6-0.1-17,7.1-17,16.6S88.5,173.1,98.3,173.2z"/>
<path d="M148.4,71.4c0.2,7.5-5.1,15.8-12.6,23.2c-4.9,4.8-9.9,9.4-15.2,14c-5,4.2-8.3,10.1-9.4,16.6c-1.6,8.7-7.1,12.9-15.1,12.2
	c-7.8-0.6-12.9-7-13-15.4c-0.1-9.9,3.9-19.5,11-26.3c5.3-5.5,11.2-10.4,16.6-15.6c4.6-4.4,8.4-9.2,6.1-16.3
	c-2.1-6.5-7.1-9.6-13.2-10.5c-7-0.9-13.4,0.2-17.8,6.6c-3.3,4.7-4.6,10.1-7,15.3c-2.9,6.3-8.2,9.3-14.9,8.6
	c-5.9-0.7-11.7-5.7-12.9-11.6c-1.3-6.1,0.4-11.7,3.1-16.9c8.5-17.5,23.6-25.4,42.1-27.1c12.9-1.1,25.2,1.4,36.1,9.2
	C142.5,44.8,148.3,54.8,148.4,71.4z"/>
<path d="M98.3,173.2c-9.6-0.1-16.5-6.9-16.5-16.4s7.4-16.7,17-16.6c8.9,0,16.2,7.2,16.2,16.2l0,0c0,0.2,0,0.4,0,0.6
	C114.7,166.5,107.9,173.2,98.3,173.2z"/>
</svg>
