<?xml version="1.0" encoding="utf-8"?>
<!-- Generator: Adobe Illustrator 22.1.0, SVG Export Plug-In . SVG Version: 6.00 Build 0)  -->
<svg version="1.1" id="Слой_1" xmlns="http://www.w3.org/2000/svg" xmlns:xlink="http://www.w3.org/1999/xlink" x="0px" y="0px"
	 viewBox="0 0 200 200" style="enable-background:new 0 0 200 200;" xml:space="preserve">
<style type="text/css">
	.st0{fill:#FE9B00;}
</style>
<title>Монтажная область 1</title>
<ellipse class="st0" cx="98.4" cy="100" rx="85.8" ry="86.3"/>
<rect x="82.5" y="12.5" transform="matrix(0.7071 -0.7071 0.7071 0.7071 -41.4214 100)" width="35" height="175"/>
<rect x="82.5" y="12.5" transform="matrix(0.7071 0.7071 -0.7071 0.7071 100 -41.4214)" width="35" height="175"/>
<path d="M99.7,195C47.3,194.9,4.9,152.3,5,99.9S47.9,4.9,100.6,5c52.2,0.2,94.4,42.9,94.4,95.4C194.8,152.7,152.1,195.1,99.7,195z
	 M180.9,100.1c0.1-45.2-36.4-81.9-81.3-82S18.2,54.7,18.1,99.9s36.4,81.9,81.3,82l0,0C144.3,182,180.8,145.3,180.9,100.1z"/>
</svg>
