<?xml version="1.0" encoding="utf-8"?>
<!-- Generator: Adobe Illustrator 28.3.0, SVG Export Plug-In . SVG Version: 6.00 Build 0)  -->
<svg version="1.1" id="Слой_1" xmlns="http://www.w3.org/2000/svg" xmlns:xlink="http://www.w3.org/1999/xlink" x="0px" y="0px"
	 viewBox="0 0 2532.8 2405.5" style="enable-background:new 0 0 2532.8 2405.5;" xml:space="preserve">
<style type="text/css">
	.st0{fill:#FE9B00;stroke:#000000;stroke-width:25;stroke-linecap:round;stroke-linejoin:round;stroke-miterlimit:10;}
	.st1{fill:#000000;}
	.st2{opacity:0.75;fill:none;stroke:#724C07;stroke-width:10;stroke-miterlimit:10;enable-background:new    ;}
	.st3{fill:#FE9B00;}
	.st4{fill:#FE9B00;stroke:#724C07;stroke-width:15;stroke-miterlimit:10;}
</style>
<ellipse cx="1277.8" cy="1162.9" rx="995.5" ry="995.5"/>
<path class="st0" d="M640.7,2036.4c-19.3-34.7-47.5-24.4-68.1-23.1c-129.7,16.7-224.8-47.5-309.6-133.6c-11.6-11.6-27-25.7-20.6-45
	c7.7-24.4,30.8-20.6,50.1-19.3c37.3,1.3,73.2,3.9,113,5.1c-14.1-38.5-45-36-62.9-42.4c-104-36-179.8-102.8-231.2-202.9
	c-9-18-27-41.1-10.3-59.1c15.4-18,39.8-6.4,57.8,1.3l93.8,37.3c0-46.2-33.4-52.7-52.7-66.8c-88.6-62.9-146.4-158-160.6-260.8
	c-2.6-18-6.4-42.4,11.6-53.9c20.6-12.8,33.4,10.3,48.8,20.6c25.7,15.4,50.1,32.1,77.1,50.1c12.8-43.7-20.6-64.2-38.5-88.6
	c-61.7-78.4-88.6-174.7-77.1-271c2.6-20.6,5.1-47.5,30.8-52.7c20.6-5.1,30.8,19.3,42.4,34.7c20.6,24.4,39.8,48.8,61.7,78.4
	c18-43.7-1.3-71.9-14.1-98.9c-47.5-101.5-28.3-199.1,14.1-298c6.4-15.4,12.8-36,33.4-37.3s23.1,23.1,32.1,36
	c18,33.4,23.1,70.6,52.7,100.2c16.7-28.3,6.4-51.4,3.9-71.9c-16.7-123.3,36-219.6,104-308.3c10.3-12.8,25.7-29.5,43.7-23.1
	c18,7.7,15.4,29.5,15.4,46.2c1.3,45,0,88.6,0,136.2c39.8-7.7,32.1-37.3,33.4-56.5C525.1,245.8,591.9,161,679.2,86.5
	c18-15.4,38.5-38.5,59.1-20.6c21.8,15.4,10.3,43.7,5.1,66.8c-9,37.3-20.6,73.2-33.4,128.4c368.6-188.8,728.3-191.4,1093.1-6.4
	c1.3-43.7-16.7-80.9-27-122c-5.1-24.4-18-48.8,6.4-65.5s45,2.6,60.4,18c88.6,78.4,163.1,165.7,161.8,296.7c0,15.4,1.3,30.8,27,36
	c2.6-39.8,5.1-79.6,9-118.2c1.3-15.4,0-37.3,20.6-43.7c16.7-6.4,30.8,6.4,42.4,19.3c68.1,87.3,114.3,181.1,96.3,298
	c-5.1,33.4-21.8,66.8,10.3,101.5c15.4-42.4,30.8-80.9,45-119.5c6.4-15.4,11.6-37.3,30.8-38.5c23.1-2.6,32.1,20.6,38.5,38.5
	c43.7,98.9,57.8,199.1,7.7,301.9c-14.1,29.5-37.3,57.8-19.3,96.3c36-25.7,53.9-61.7,75.8-93.8c10.3-12.8,18-33.4,39.8-29.5
	c25.7,3.9,25.7,28.3,28.3,46.2c14.1,109.2-10.3,205.5-77.1,294.1c-19.3,25.7-50.1,47.5-45,92.5c30.8-19.3,55.2-38.5,80.9-53.9
	c12.8-7.7,27-27,45-14.1c18,11.6,18,33.4,15.4,52.7c-12.8,97.6-56.5,176-136.2,235.1c-30.8,23.1-65.5,37.3-84.8,88.6
	c41.1-15.4,70.6-28.3,100.2-39.8c20.6-7.7,46.2-25.7,61.7-2.6c18,24.4,0,46.2-11.6,65.5c-56.5,96.3-131,170.8-242.8,196.5
	c-15.4,5.1-32.1,10.3-47.5,18c-2.6,1.3-2.6,7.7-6.4,16.7c41.1,7.7,78.4-2.6,114.3-2.6c16.7,0,37.2-3.9,45,15.4s-3.9,34.7-14.1,46.2
	c-79.6,87.3-170.8,149-294.1,136.2c-30.8-3.9-61.7-16.7-88.6,19.3c50.1,10.3,93.8,20.6,141.3,32.1c18,5.1,42.4,7.7,45,30.8
	c2.6,19.3-16.7,29.5-32.1,37.2c-106.6,59.1-218.4,98.9-337.8,37.3c-28.3-14.1-56.5-29.5-88.6,0c33.4,34.7,74.5,42.4,110.5,61.7
	c23.1,12.8,59.1,19.3,56.5,51.4c-3.9,29.5-41.1,33.4-64.2,41.1c-104,37.3-196.5,3.9-281.3-57.8c-89.9-68.1-219.6-68.1-309.6-1.3
	c-97.6,69.4-201.7,98.9-317.3,47.5c-15.4-7.7-36-9-36-32.1c0-16.7,16.7-24.4,29.5-32.1c48.8-25.7,95.1-50.1,145.1-73.2
	c-34.7-33.4-65.5-19.3-96.3-2.6c-119.5,60.4-227.4,24.4-331.4-38.5c-14.1-7.7-33.4-16.7-29.5-38.5c3.9-23.1,23.1-24.4,39.8-29.5
	C549.5,2055.6,595.8,2046.6,640.7,2036.4z M2232.2,1170.6c2.6-548.5-425.2-986.5-969.8-987.8c-535.6-2.6-969.8,431.6-971.1,973.6
	s431.6,982.6,968.5,985.2C1800.6,2141.7,2229.6,1714,2232.2,1170.6z"/>
<ellipse class="st1" cx="1265" cy="1161.6" rx="714.2" ry="698.8"/>
<ellipse class="st2" cx="1265" cy="1161.6" rx="667.9" ry="650"/>
<path class="st3" d="M674.1,1779.5l93.8-73.2l-93.8-87.3l-92.5,43.7c-30.8-60.4-60.4-119.5-93.8-182.4l95.1-23.1
	c-83.5-195.2-84.8-391.8,0-588.3l-95.1-23.1L579,663.4l102.8,46.2l84.8-88.6l-92.5-74.5l106.6-123.3l101.5,116.9L985,492.4
	c-14.1-59.1-48.8-106.6-69.4-167l160.6-64.2c7.7,66.8,15.4,129.7,24.4,195.2c105.3-21.8,210.7-23.1,316-3.9l23.1-190.1l167,61.7
	l-71.9,159.3c34.7,14.1,66.8,30.8,107.9,48.8l95.1-113l107.9,127.2l-77.1,62.9l88.6,92.5l80.9-38.5l89.9,178.5
	c-23.1,19.3-52.7,7.7-74.5,30.8c83.5,191.4,83.5,387.9,0,581.9c20.6,23.1,48.8,11.6,73.2,30.8l-89.9,178.5l-91.2-42.4l-75.8,100.2
	c16.7,14.1,43.7,34.7,73.2,57.8l-107.9,128.4l-92.5-118.2l-109.2,48.8l70.6,158l-163.1,64.2l-21.8-191.4
	c-105.3,18-210.7,16.7-316-3.9c-7.7,64.2-15.4,125.9-23.1,194l-164.4-60.4l73.2-165.7l-96.3-47.5l-102.8,119.5L674.1,1779.5z
	 M1970.2,1164.2c3.9-138.7-38.5-276.2-116.9-381.5C1672.2,533.5,1419.1,450,1127.5,495c-384.1,59.1-632,434.2-544.6,814.4
	c79.6,351.9,463.7,603.7,807.9,533.1C1741.5,1769.2,1970.2,1500.7,1970.2,1164.2L1970.2,1164.2z"/>
<path class="st4" d="M1419,1706.9c0-7.1-2.4-16.6-2.4-23.7c0-11.9-4.7-23.7-19-23.7c-14.2,0-26.1,2.4-26.1,23.7
	c4.7,30.8-16.6,37.9-42.7,37.9c-23.7,2.4-35.6-11.9-35.6-35.6c0-11.9,0-23.7-19-23.7c-16.6,2.4-14.2,14.2-14.2,26.1
	c2.4,37.9-26.1,28.5-47.4,28.5c-19,0-49.8,0-42.7-35.6c2.4-11.9,14.2-30.8-11.9-30.8s-19,16.6-19,30.8c0,19-9.5,19-23.7,16.6
	c-49.8-11.9-71.1-75.9-42.7-123.3c9.5-14.2,21.3-23.7,7.1-45.1c-14.2-16.6-28.5-9.5-45.1-4.7c-37.9,9.5-78.3-11.9-87.7-49.8
	c-2.4-4.7-2.4-11.9-2.4-16.6c0-30.8-19-52.2-33.2-78.3c-14.2-26.1-16.6-52.2,2.4-75.9c45.1-54.5,33.2-111.5,11.9-168.4
	c-28.5-75.9-47.4-151.8-26.1-232.4c42.7-149.4,227.6-275.1,386.5-258.5c71.1,7.1,139.9,28.5,203.9,59.3
	c151.8,73.5,218.2,258.5,144.6,405.5c-35.6,73.5-42.7,139.9,11.9,206.3c21.3,26.1,0,47.4-14.2,66.4c-19,21.3-26.1,49.8-26.1,78.3
	c0,49.8-56.9,80.6-113.8,64c-9.5-2.4-19-11.9-28.5-2.4c-11.9,9.5-4.7,23.7-4.7,37.9c4.7,23.7,14.2,45.1,19,66.4
	C1494.8,1685.6,1485.4,1695.1,1419,1706.9z M1473.5,1424.7c49.8,2.4,73.5-23.7,78.3-75.9c2.4-21.3,16.6-45.1-11.9-61.7
	c-26.1-14.2-49.8-21.3-80.6,0c-19,14.2-42.7,16.6-66.4,23.7c-21.3,4.7-42.7,16.6-56.9,30.8c-14.2,11.9-11.9,19,2.4,30.8
	C1373.9,1401,1421.3,1420,1473.5,1424.7L1473.5,1424.7z M1072.8,1422.4c37.9,0,87.7-19,128.1-49.8c9.5-7.1,26.1-16.6,19-30.8
	c-4.7-16.6-19-28.5-37.9-28.5c-42.7,2.4-80.6-16.6-113.8-37.9c-11.9-9.5-28.5-9.5-42.7-2.4c-35.6,16.6-42.7,47.4-35.6,80.6
	C996.9,1401,1027.7,1422.4,1072.8,1422.4L1072.8,1422.4z M1229.3,1510.1c4.7,0,4.7,0,7.1-2.4c19-16.6,35.6-28.5,56.9-4.7
	c4.7,4.7,19,0,28.5-9.5c7.1-7.1,7.1-16.6,2.4-23.7c-14.2-23.7-28.5-56.9-56.9-61.7c-21.3-2.4-26.1,33.2-37.9,52.2
	c-4.7,9.5-11.9,19-14.2,30.8C1212.7,1503,1217.4,1507.7,1229.3,1510.1L1229.3,1510.1z"/>
</svg>
