<?xml version="1.0" encoding="utf-8"?>
<!-- Generator: Adobe Illustrator 22.1.0, SVG Export Plug-In . SVG Version: 6.00 Build 0)  -->
<svg version="1.1" xmlns="http://www.w3.org/2000/svg" xmlns:xlink="http://www.w3.org/1999/xlink" x="0px" y="0px"
	 viewBox="0 0 200 200" style="enable-background:new 0 0 200 200;" xml:space="preserve">
<style type="text/css">
	.st0{fill:#F99900;stroke:#000000;stroke-width:2;stroke-miterlimit:10;}
	.st1{fill:#F99900;}
	.st2{fill:#0A0B09;}
</style>
<g id="Слой_1">
	<title>Монтажная область 1</title>
	<rect x="75" y="160" class="st0" width="50" height="20"/>
	<rect x="60" y="177.5" class="st0" width="80" height="20"/>
	<rect x="76" y="160" class="st1" width="48" height="21.6"/>
	<rect x="20" y="75" class="st0" width="20" height="50"/>
	<rect x="2.5" y="60" class="st0" width="20" height="80"/>
	<rect x="16.7" y="76" class="st1" width="21.6" height="48"/>
	<rect x="160" y="75" class="st0" width="20" height="50"/>
	<rect x="177.5" y="60" class="st0" width="20" height="80"/>
	<rect x="159.2" y="76" class="st1" width="21.6" height="48"/>
	<rect x="75" y="20" class="st0" width="50" height="20"/>
	<rect x="60" y="2.5" class="st0" width="80" height="20"/>
	<rect x="76" y="17.5" class="st1" width="48" height="21.6"/>
	<path class="st2" d="M167,99.8c0.4,36.7-29.3,66.8-66.4,67.1c-36.4,0.4-66.6-28.4-67.5-64.7v-2.8c0.1-36.5,30.3-66.4,67-66.3
		C136.9,33.2,167,63.2,167,99.8z M157.1,99.5c0.1-31.5-25.5-57.2-57.2-57.3s-57.5,25.4-57.6,57c-0.1,31.5,25.5,57.2,57.2,57.3l0,0
		C131.2,156.4,156.9,130.9,157.1,99.5L157.1,99.5z"/>
	<polygon class="st0" points="61.7,138.3 53.5,128.3 27.5,172.5 71.7,146.5 	"/>
	<polygon class="st0" points="138.9,138.9 147,129 172.5,172.5 129,146.9 	"/>
	<polygon class="st0" points="139.7,60.2 129.9,52.5 172.5,27.5 147.6,69.9 	"/>
	<polyline class="st0" points="69.4,52.4 27.5,27.5 52.4,69.4 	"/>
	<ellipse class="st1" cx="99.7" cy="99.3" rx="57.4" ry="57.1"/>
	<path class="st1" d="M157.7,100.1c-0.1,31.8-25.9,57.6-57.7,57.6c-31.8-0.1-57.7-26-57.6-57.7c0.1-31.8,25.9-57.6,57.7-57.6l0,0
		C132.1,42.4,157.7,68.2,157.7,100.1z M114,152c6.5-1.3,7.3-2.3,6-8.4c-0.5-2.2-1.3-4.3-1.9-6.6c-0.3-1.3-0.9-2.5,0.3-3.6
		c1-1,1.9,0.1,2.8,0.3c5.5,1.6,11-1.4,11-6.3c0-2.8,0.9-5.5,2.6-7.7c1.3-1.8,3.5-3.8,1.3-6.5c-5.1-6.6-4.5-13.3-1-20.4
		c7-14.6,0.5-33.2-14.1-40.4c-6.2-3.1-12.9-5.1-19.8-5.8c-15.3-1.7-33.5,10.8-37.5,25.7c-2.2,8.1-0.3,15.7,2.5,23.3
		c2,5.6,3.3,11.3-1,16.7c-1.9,2.3-1.5,4.8-0.2,7.6c1.2,2.5,3,4.8,3.1,7.7c0.1,3.9,3.3,7.1,7.2,7l0,0c0.6,0,1.2-0.1,1.7-0.2
		c1.6-0.4,3.1-1.3,4.5,0.5s0.2,3-0.7,4.3c-2.9,4.5-0.6,11.1,4.1,12.2c1.5,0.4,2.5,0.3,2.3-1.6c0-1.3-0.6-3.1,1.8-3
		c2.6,0.1,1.5,1.9,1.3,3.1c-0.6,3.5,2,3.5,4.1,3.6s4.8,1,4.5-2.8c-0.1-1.2-0.1-2.4,1.4-2.6c1.8-0.3,1.7,1.1,1.8,2.2
		c0.1,2.3,1,3.7,3.6,3.6s4.4-0.7,4-3.9c-0.2-1.9,1-2.2,2.5-2.2c1.6-0.1,1.9,1,1.9,2.2C113.8,150.6,113.8,151.2,114,152L114,152z"/>
	<path class="st2" d="M113.5,150.8c-0.1-0.7-0.2-1.6-0.2-2.2c-0.1-1.3-0.4-2.2-1.9-2.2c-1.4,0.1-2.7,0.4-2.5,2.2
		c0.4,3-1.6,3.6-3.9,3.8c-2.3,0.1-3.5-1.3-3.6-3.5c0-1.2,0-2.4-1.8-2.2c-1.6,0.2-1.5,1.5-1.4,2.5c0.2,3.6-2.6,2.8-4.5,2.8
		c-1.9-0.1-4.6-0.1-4-3.5c0.2-1.3,1.3-2.9-1.3-3c-2.5-0.1-1.8,1.7-1.8,3c0.1,1.9-0.8,1.9-2.3,1.6c-4.7-1.2-6.8-7.5-4-12.1
		c0.9-1.4,2.1-2.5,0.7-4.3c-1.4-1.9-2.9-1-4.4-0.5c-3.7,1.1-7.6-1.2-8.6-4.9c-0.1-0.6-0.2-1.3-0.2-1.9c-0.1-3-1.9-5.3-3.1-7.7
		c-1.3-2.6-1.6-5.3,0.2-7.5c4.3-5.4,3.1-10.9,1-16.5c-2.8-7.5-4.5-14.9-2.5-23.1c3.9-14.7,22-27.1,37.2-25.4
		c6.8,0.7,13.5,2.8,19.6,5.7c14.5,7.1,20.9,25.4,14,39.9c-3.4,7.1-4,13.8,1,20.3c2.1,2.6-0.1,4.7-1.3,6.4c-1.7,2.1-2.7,4.9-2.6,7.6
		c0,4.9-5.5,7.9-11,6.2c-1-0.3-1.8-1.3-2.8-0.3c-1.1,1.1-0.6,2.3-0.3,3.6c0.6,2.2,1.5,4.3,1.9,6.5
		C120.8,148.6,119.9,149.7,113.5,150.8z M118.8,123.1c4.8,0.1,7.1-2.2,7.6-7.5c0.2-2.1,1.6-4.6-1.3-6c-2.7-1.3-4.9-2.1-7.8-0.1
		c-1.8,1.3-4.2,1.8-6.4,2.2c-2.1,0.5-3.9,1.6-5.6,3c-1.3,1.2-1.2,1.9,0.1,3C109.3,120.6,113.9,122.5,118.8,123.1L118.8,123.1z
		 M80.3,122.8c3.6,0,8.5-1.9,12.2-4.8c1-0.7,2.5-1.6,1.9-3c-0.4-1.7-2-2.8-3.7-2.8c-4.1,0.1-7.7-1.6-11-3.7c-1.2-1-2.9-1-4.2-0.1
		c-3.6,1.8-4,4.7-3.5,8C72.9,120.5,76,122.8,80.3,122.8L80.3,122.8z M95.2,131.4c0.3-0.1,0.6,0,0.7-0.1c1.7-1.6,3.3-2.8,5.5-0.5
		c0.6,0.6,1.9-0.1,2.8-0.8c0.7-0.7,0.7-1.7,0.2-2.4c-1.4-2.4-2.9-5.6-5.4-6c-2.2-0.4-2.5,3.3-3.6,5.2c-0.6,1-1,1.9-1.4,3.1
		C93.7,130.6,94.2,131.1,95.2,131.4L95.2,131.4z"/>
	<path class="st1" d="M118.8,123.1c-4.8-0.5-9.4-2.4-13.4-5.4c-1.3-1-1.5-1.9-0.1-3c1.6-1.5,3.6-2.5,5.6-3c2.2-0.4,4.6-1,6.4-2.2
		c2.9-1.9,5.2-1.3,7.8,0.1c3,1.6,1.5,3.9,1.3,6C125.8,120.7,123.5,123.2,118.8,123.1z"/>
	<path class="st1" d="M80.3,122.8c-4.3,0-7.4-2.2-8.2-6.4c-0.7-3.3-0.1-6.2,3.5-8c1.3-0.8,3-0.7,4.2,0.1c3.3,2.2,6.8,3.9,11,3.7
		c1.7-0.1,3.3,1.1,3.7,2.8c0.5,1.6-0.9,2.2-1.9,3C88.8,120.9,83.9,122.8,80.3,122.8z"/>
	<path class="st1" d="M95.2,131.4c-1-0.2-1.6-0.7-1.2-1.9c0.4-1.1,0.8-2.1,1.4-3.1c1.2-1.9,1.4-5.6,3.6-5.2c2.5,0.4,3.9,3.7,5.4,6
		c0.5,0.7,0.4,1.9-0.2,2.4c-0.7,0.8-2.1,1.5-2.8,0.8c-2.2-2.2-3.9-1.1-5.5,0.5C95.8,131.2,95.5,131.2,95.2,131.4z"/>
</g>
<g id="Слой_2">
</g>
</svg>
