<?xml version="1.0" encoding="utf-8"?>
<!-- Generator: Adobe Illustrator 28.3.0, SVG Export Plug-In . SVG Version: 6.00 Build 0)  -->
<svg version="1.1" id="Слой_1" xmlns="http://www.w3.org/2000/svg" xmlns:xlink="http://www.w3.org/1999/xlink" x="0px" y="0px"
	 viewBox="0 0 200 200" style="enable-background:new 0 0 200 200;" xml:space="preserve">
<style type="text/css">
	.st0{stroke:#000000;stroke-width:5;stroke-miterlimit:10;}
	.st1{stroke:#FE9B00;stroke-width:5;stroke-miterlimit:10;}
	.st2{opacity:0.75;fill:none;stroke:#724C07;stroke-miterlimit:10;enable-background:new    ;}
	.st3{fill:#FE9B00;}
	.st4{fill:#FE9B00;stroke:#724C07;stroke-miterlimit:10;}
</style>
<ellipse class="st0" cx="100" cy="100" rx="93.5" ry="93.5"/>
<ellipse class="st1" cx="100" cy="100" rx="91" ry="91"/>
<ellipse class="st2" cx="100.6" cy="100.1" rx="58.5" ry="57.8"/>
<path class="st3" d="M48.8,155l8.2-6.5l-8.2-7.8l-8.1,3.9c-2.7-5.4-5.3-10.6-8.2-16.2l8.3-2.1c-7.3-17.4-7.4-34.8,0-52.3l-8.3-2
	l8-16.2l9,4.1l7.4-7.9l-8.1-6.6l9.3-11L67,44.8l9-4.2c-1.2-5.3-4.3-9.5-6.1-14.8L84.1,20c0.7,5.9,1.3,11.5,2.1,17.4
	c9.2-1.9,18.5-2.1,27.7-0.3l2-16.9l14.6,5.5l-6.3,14.2c3,1.3,5.9,2.7,9.5,4.3l8.3-10l9.5,11.3l-6.8,5.6l7.8,8.2l7.1-3.4l7.9,15.9
	c-2,1.7-4.6,0.7-6.5,2.7c7.3,17,7.3,34.5,0,51.7c1.8,2.1,4.3,1,6.4,2.7l-7.9,15.9l-8-3.8l-6.6,8.9c1.5,1.3,3.8,3.1,6.4,5.1
	l-9.5,11.4l-8.1-10.5l-9.6,4.3l6.2,14L116,180l-1.9-17c-9.2,1.6-18.5,1.5-27.7-0.3c-0.7,5.7-1.3,11.2-2,17.3L70,174.5l6.4-14.7
	l-8.4-4.2l-9,10.6L48.8,155z M162.4,100.3c0.3-12.3-3.4-24.6-10.2-33.9c-15.9-22.2-38.1-29.6-63.6-25.6
	C54.9,46,33.2,79.4,40.8,113.2c7,31.3,40.6,53.7,70.8,47.4C142.4,154.1,162.4,130.2,162.4,100.3L162.4,100.3z"/>
<path class="st4" d="M114.1,148.5c0-0.6-0.2-1.5-0.2-2.1c0-1.1-0.4-2.1-1.7-2.1c-1.2,0-2.3,0.2-2.3,2.1c0.4,2.7-1.5,3.4-3.7,3.4
	c-2.1,0.2-3.1-1.1-3.1-3.2c0-1.1,0-2.1-1.7-2.1c-1.5,0.2-1.2,1.3-1.2,2.3c0.2,3.4-2.3,2.5-4.2,2.5c-1.7,0-4.4,0-3.7-3.2
	c0.2-1.1,1.2-2.7-1-2.7s-1.7,1.5-1.7,2.7c0,1.7-0.8,1.7-2.1,1.5c-4.4-1.1-6.2-6.7-3.7-11c0.8-1.3,1.9-2.1,0.6-4
	c-1.2-1.5-2.5-0.8-4-0.4c-3.3,0.8-6.9-1.1-7.7-4.4c-0.2-0.4-0.2-1.1-0.2-1.5c0-2.7-1.7-4.6-2.9-7c-1.2-2.3-1.5-4.6,0.2-6.7
	c4-4.8,2.9-9.9,1-15c-2.5-6.7-4.2-13.5-2.3-20.7c3.7-13.3,19.9-24.5,33.9-23c6.2,0.6,12.3,2.5,17.9,5.3c13.3,6.5,19.1,23,12.7,36.1
	c-3.1,6.5-3.7,12.4,1,18.3c1.9,2.3,0,4.2-1.2,5.9c-1.7,1.9-2.3,4.4-2.3,7c0,4.4-5,7.2-10,5.7c-0.8-0.2-1.7-1.1-2.5-0.2
	c-1,0.8-0.4,2.1-0.4,3.4c0.4,2.1,1.2,4,1.7,5.9C120.8,146.7,119.9,147.5,114.1,148.5z M118.9,123.5c4.4,0.2,6.4-2.1,6.9-6.7
	c0.2-1.9,1.5-4-1-5.5c-2.3-1.3-4.4-1.9-7.1,0c-1.7,1.3-3.7,1.5-5.8,2.1c-1.9,0.4-3.7,1.5-5,2.7c-1.2,1.1-1,1.7,0.2,2.7
	C110.2,121.3,114.3,123,118.9,123.5L118.9,123.5z M83.8,123.3c3.3,0,7.7-1.7,11.2-4.4c0.8-0.6,2.3-1.5,1.7-2.7
	c-0.4-1.5-1.7-2.5-3.3-2.5c-3.7,0.2-7.1-1.5-10-3.4c-1-0.8-2.5-0.8-3.7-0.2c-3.1,1.5-3.7,4.2-3.1,7.2
	C77.1,121.3,79.8,123.3,83.8,123.3L83.8,123.3z M97.5,131.1c0.4,0,0.4,0,0.6-0.2c1.7-1.5,3.1-2.5,5-0.4c0.4,0.4,1.7,0,2.5-0.8
	c0.6-0.6,0.6-1.5,0.2-2.1c-1.2-2.1-2.5-5.1-5-5.5c-1.9-0.2-2.3,3-3.3,4.6c-0.4,0.8-1,1.7-1.2,2.7C96,130.4,96.5,130.8,97.5,131.1
	L97.5,131.1z"/>
</svg>
