<?xml version="1.0" encoding="utf-8"?>
<!-- Generator: Adobe Illustrator 22.1.0, SVG Export Plug-In . SVG Version: 6.00 Build 0)  -->
<svg version="1.1" id="Слой_1" xmlns="http://www.w3.org/2000/svg" xmlns:xlink="http://www.w3.org/1999/xlink" x="0px" y="0px"
	 viewBox="0 0 200 200" style="enable-background:new 0 0 200 200;" xml:space="preserve">
<style type="text/css">
	.st0{stroke:#000000;stroke-width:5;stroke-miterlimit:10;}
	.st1{stroke:#FE9B00;stroke-width:5;stroke-miterlimit:10;}
	.st2{opacity:0.75;fill:none;stroke:#A57130;stroke-width:10;stroke-miterlimit:10;enable-background:new    ;}
	.st3{fill:#FE9B00;}
	.st4{fill:#F99900;}
	.st5{fill:#0A0B09;}
</style>
<ellipse class="st0" cx="100" cy="100" rx="93.5" ry="93.5"/>
<ellipse class="st1" cx="100" cy="100" rx="91" ry="91"/>
<ellipse class="st2" cx="100.6" cy="99.9" rx="61" ry="59.4"/>
<path class="st3" d="M46.7,156.4l8.6-6.7l-8.6-8l-8.4,4c-2.8-5.5-5.5-10.9-8.6-16.7l8.7-2.1c-7.6-17.8-7.7-35.8,0-53.7l-8.7-2.1
	L38,54.4l9.4,4.2l7.7-8.1l-8.4-6.8l9.7-11.3l9.3,10.7l9.4-4.3c-1.3-5.4-4.5-9.7-6.3-15.3l14.7-5.9c0.7,6.1,1.4,11.9,2.2,17.8
	c9.6-2,19.2-2.1,28.9-0.4l2.1-17.4l15.3,5.6L125.3,38c3.2,1.3,6.1,2.8,9.9,4.5l8.7-10.3l9.9,11.6l-7,5.8l8.1,8.4l7.4-3.5l8.2,16.3
	c-2.1,1.8-4.8,0.7-6.8,2.8c7.6,17.5,7.6,35.4,0,53.2c1.9,2.1,4.5,1.1,6.7,2.8l-8.2,16.3l-8.3-3.9l-6.9,9.2c1.5,1.3,4,3.2,6.7,5.3
	l-9.9,11.7l-8.4-10.8l-10,4.5l6.5,14.4l-14.9,5.9l-2-17.5c-9.6,1.6-19.2,1.5-28.9-0.4c-0.7,5.9-1.4,11.5-2.1,17.7l-15-5.5l6.7-15.1
	l-8.8-4.3L57.5,168L46.7,156.4z M165.1,100.2c0.4-12.7-3.5-25.2-10.7-34.9C137.8,42.6,114.7,34.9,88.1,39
	C53,44.4,30.3,78.7,38.3,113.4c7.3,32.2,42.4,55.2,73.8,48.7C144.2,155.5,165.1,130.9,165.1,100.2L165.1,100.2z"/>
<rect x="86.6" y="130.1" class="st4" width="28.3" height="10.1"/>
<rect x="80" y="138.9" class="st4" width="41.1" height="10.1"/>
<rect x="59.6" y="86.1" class="st4" width="10.2" height="27.6"/>
<rect x="50.5" y="79.8" class="st4" width="10.2" height="40.3"/>
<rect x="131.4" y="86.1" class="st4" width="10.2" height="27.6"/>
<rect x="140.4" y="79.8" class="st4" width="10.2" height="40.3"/>
<rect x="86.6" y="59.7" class="st4" width="28.3" height="10.1"/>
<rect x="80" y="50.9" class="st4" width="41.1" height="10.1"/>
<ellipse class="st4" cx="100.6" cy="99.9" rx="32.4" ry="31.7"/>
<path class="st5" d="M135,99.8c0.2,18.4-15.1,33.6-34,33.7c-18.8,0.1-34.2-14.2-34.6-32.5v-1.4c-0.1-18.3,15.5-33.3,34.3-33.2
	C119.4,66.5,135,81.4,135,99.8z M129.9,99.7c0-15.8-13.1-28.8-29.3-28.8S71.1,83.6,71,99.5c0,15.8,13.1,28.8,29.3,28.8l0,0
	C116.6,128.2,129.7,115.4,129.9,99.7L129.9,99.7z"/>
<path class="st4" d="M130.2,100.1c0,16-13.3,28.9-29.6,28.9S71,116,71,100s13.3-29,29.6-29l0,0C117.1,71,130.2,83.9,130.2,100.1z
	 M107.8,126c3.3-0.6,3.6-1.2,3.1-4.2c-0.2-1.2-0.7-2.2-0.9-3.3c-0.2-0.6-0.5-1.2,0.2-1.9c0.6-0.5,0.9,0,1.4,0.1
	c2.8,0.8,5.6-0.7,5.6-3.2c0-1.4,0.5-2.8,1.3-3.9c0.6-0.8,1.8-1.9,0.7-3.3c-2.6-3.3-2.3-6.7-0.6-10.3c3.6-7.4,0.2-16.7-7.2-20.3
	c-3.3-1.5-6.7-2.6-10.1-2.9c-7.9-0.8-17.1,5.4-19.2,12.9c-1.1,4.1-0.2,7.9,1.3,11.7c0.9,2.8,1.8,5.6-0.6,8.3
	c-0.9,1.2-0.7,2.5-0.1,3.9c0.6,1.2,1.5,2.5,1.6,3.9c0,1.9,1.8,3.6,3.6,3.5l0,0c0.2,0,0.6,0,0.9-0.1c0.8-0.1,1.6-0.7,2.2,0.2
	c0.6,0.9,0.1,1.5-0.4,2.2c-1.5,2.2-0.2,5.6,2.1,6.1c0.7,0.1,1.3,0.1,1.2-0.8c0-0.6-0.2-1.5,0.9-1.5c1.3,0,0.7,0.9,0.6,1.5
	c-0.2,1.8,0.9,1.8,2.1,1.8c1.1,0,2.5,0.5,2.3-1.4c0-0.6-0.1-1.2,0.7-1.3c0.9-0.1,0.9,0.5,0.9,1.2c0,1.2,0.6,1.9,1.8,1.8
	c1.3-0.1,2.2-0.4,2.1-1.9c-0.1-0.9,0.6-1.1,1.3-1.2c0.8,0,0.9,0.5,0.9,1.2C107.7,125.3,107.7,125.6,107.8,126L107.8,126z"/>
<path class="st5" d="M107.6,125.4c0-0.4-0.1-0.8-0.1-1.2c0-0.6-0.2-1.2-0.9-1.2c-0.7,0-1.3,0.1-1.3,1.2c0.2,1.5-0.8,1.9-2.1,1.9
	c-1.2,0.1-1.8-0.6-1.8-1.8c0-0.6,0-1.2-0.9-1.2c-0.8,0.1-0.7,0.7-0.7,1.3c0.1,1.9-1.3,1.4-2.3,1.4c-0.9,0-2.5,0-2.1-1.8
	c0.1-0.6,0.7-1.5-0.6-1.5c-1.3,0-0.9,0.8-0.9,1.5c0,0.9-0.5,0.9-1.2,0.8c-2.5-0.6-3.5-3.8-2.1-6.1c0.5-0.7,1.1-1.2,0.4-2.2
	c-0.7-0.8-1.4-0.5-2.2-0.2c-1.9,0.5-3.9-0.6-4.3-2.5c-0.1-0.2-0.1-0.6-0.1-0.8c0-1.5-0.9-2.6-1.6-3.9s-0.8-2.6,0.1-3.8
	c2.2-2.7,1.6-5.5,0.6-8.3c-1.4-3.8-2.3-7.5-1.3-11.5C84,78.2,93.1,72,101,72.8c3.5,0.4,6.9,1.4,10.1,2.9c7.5,3.6,10.8,12.8,7.2,20.1
	c-1.8,3.6-2.1,6.9,0.6,10.2c1.1,1.3,0,2.3-0.7,3.3c-0.9,1.1-1.3,2.5-1.3,3.9c0,2.5-2.8,4-5.6,3.2c-0.5-0.1-0.9-0.6-1.4-0.1
	c-0.6,0.5-0.2,1.2-0.2,1.9c0.2,1.2,0.7,2.2,0.9,3.3C111.3,124.4,110.9,124.8,107.6,125.4z M110.3,111.4c2.5,0.1,3.6-1.2,3.9-3.8
	c0.1-1.1,0.8-2.2-0.6-3.1c-1.3-0.7-2.5-1.1-4,0c-0.9,0.7-2.1,0.8-3.3,1.2c-1.1,0.2-2.1,0.8-2.8,1.5c-0.7,0.6-0.6,0.9,0.1,1.5
	C105.3,110.3,107.7,111.2,110.3,111.4L110.3,111.4z M90.4,111.3c1.9,0,4.3-0.9,6.3-2.5c0.5-0.4,1.3-0.8,0.9-1.5
	c-0.2-0.8-0.9-1.4-1.9-1.4c-2.1,0.1-4-0.8-5.6-1.9c-0.6-0.5-1.4-0.5-2.1-0.1c-1.8,0.8-2.1,2.3-1.8,4
	C86.7,110.3,88.2,111.3,90.4,111.3L90.4,111.3z M98.2,115.7c0.2,0,0.2,0,0.4-0.1c0.9-0.8,1.8-1.4,2.8-0.2c0.2,0.2,0.9,0,1.4-0.5
	c0.4-0.4,0.4-0.8,0.1-1.2c-0.7-1.2-1.4-2.8-2.8-3.1c-1.1-0.1-1.3,1.6-1.9,2.6c-0.2,0.5-0.6,0.9-0.7,1.5S97.6,115.6,98.2,115.7
	L98.2,115.7z"/>
<path class="st4" d="M110.3,111.4c-2.5-0.2-4.8-1.2-6.9-2.7c-0.7-0.5-0.7-0.8-0.1-1.5c0.8-0.7,1.8-1.2,2.8-1.5
	c1.2-0.2,2.5-0.5,3.3-1.2c1.4-0.9,2.7-0.6,4,0c1.5,0.8,0.7,2,0.6,3.1C113.9,110.3,112.7,111.6,110.3,111.4z"/>
<path class="st4" d="M90.4,111.3c-2.2,0-3.8-1.2-4.2-3.3c-0.4-1.6,0-3.2,1.8-4c0.6-0.5,1.5-0.4,2.1,0.1c1.8,1.2,3.5,1.9,5.6,1.9
	c0.9,0,1.8,0.5,1.9,1.4c0.2,0.8-0.5,1.2-0.9,1.5C94.9,110.4,92.3,111.3,90.4,111.3z"/>
<path class="st4" d="M98.2,115.7c-0.6-0.1-0.8-0.4-0.6-0.8c0.2-0.5,0.5-1.1,0.7-1.5c0.6-0.8,0.7-2.8,1.9-2.6c1.3,0.2,2,1.9,2.8,3.1
	c0.2,0.4,0.2,0.8-0.1,1.2c-0.4,0.5-1.1,0.7-1.4,0.5c-1.2-1.2-2-0.5-2.8,0.2C98.4,115.6,98.4,115.6,98.2,115.7z"/>
<polygon class="st4" points="79.6,120.4 75.8,115.7 63.3,136.3 84.6,124.2 "/>
<polygon class="st4" points="121.5,120.4 125.4,115.7 137.8,136.3 116.7,124.2 "/>
<polygon class="st4" points="121.5,79.4 116.7,75.6 137.8,63.4 125.4,84.1 "/>
<polygon class="st4" points="79.6,79.5 84.2,75.8 63.3,63.6 75.8,84 "/>
<polygon class="st4" points="84.1,75.8 84.3,75.9 84,76 83.9,75.9 "/>
<polygon class="st4" points="75.8,83.9 81.8,81.9 84.3,75.8 77.6,78 "/>
<polygon class="st4" points="75.8,115.7 76.9,123.3 84.6,124.2 81.4,115.4 "/>
<polygon class="st4" points="116.7,124.2 123.1,122.6 125.4,115.7 120.5,115.7 "/>
<polygon class="st4" points="125.4,84.1 118.8,81.2 116.7,75.6 123.5,76.8 "/>
</svg>
