<?xml version="1.0" encoding="utf-8"?>
<!-- Generator: Adobe Illustrator 22.1.0, SVG Export Plug-In . SVG Version: 6.00 Build 0)  -->
<svg version="1.1" id="Слой_1" xmlns="http://www.w3.org/2000/svg" xmlns:xlink="http://www.w3.org/1999/xlink" x="0px" y="0px"
	 viewBox="0 0 200 200" style="enable-background:new 0 0 200 200;" xml:space="preserve">
<style type="text/css">
	.st0{fill:#FE9B00;}
	.st1{fill:#070909;}
	.st2{fill:#FD9B00;}
	.st3{fill:#F99800;}
</style>
<ellipse class="st0" cx="99.5" cy="99.7" rx="84.2" ry="85.7"/>
<path d="M99.7,195C47.5,194.9,4.9,152.1,5,99.7S47.9,4.9,100.3,5s94.8,43,94.7,95.3S152,195.1,99.7,195z M99.4,180.9
	c44.9,0,81.3-36.3,81.4-81.2c0-44.9-36.4-81.6-81.1-81.6c-45-0.6-81.9,35.4-82.5,80.4s35.4,81.9,80.4,82.5
	C98.2,180.9,98.8,180.9,99.4,180.9L99.4,180.9z"/>
<path class="st0" d="M99.4,180.9c-45-0.1-81.4-36.6-81.3-81.6S54.8,17.9,99.8,18l0,0c44.8,0,81.2,36.7,81.1,81.6
	C180.8,144.5,144.3,180.9,99.4,180.9z M152.5,73.1c-0.1-18.8-8.9-33.7-23.9-41c-8.5-4.2-17.5-6.9-26.9-8.1
	C79.5,21.2,54,38.6,48,60.2c-3.1,11.3-0.5,21.7,3.3,32.3c2.9,8.1,5,16.2-1.3,24c-2.6,3.2-2.3,6.9-0.3,10.7c1.8,3.5,4.3,6.7,4.4,10.9
	c0,5.5,4.6,10,10.1,9.9l0,0l0,0c0.8,0,1.6-0.1,2.4-0.3c2.3-0.6,4.3-1.7,6.3,0.8c2.3,2.9,0,4.4-1.3,6.5c-3.7,6.1-0.3,15.1,6,16.9
	c2.7,0.7,3.6,0.1,3.5-2.7c-0.1-1.7-0.5-3.9,2.4-3.7c3.7,0.2,2.1,2.7,1.8,4.3c-0.8,4.9,2.9,4.8,5.8,5c2.8,0.2,6.7,1.3,6.3-3.9
	c-0.1-1.9-0.1-3.8,2.5-3.8s2,2.2,2.1,3.6c0.1,3.3,1.8,4.7,4.8,4.5s6.1-0.4,5.8-4.7c-0.2-2.4,0.6-3.8,3.3-3.9c3.1-0.1,2.8,2.1,3,4
	c0.1,1-0.3,2.2,1.3,2.4c3.6,0.5,8.4-3.9,8-7.5c-0.4-4.7-1.6-9.3-3.4-13.6c-0.7-1.6-1.3-3.6,0.1-5.1s2.9,0,4.3,0.4
	c7.7,2.2,15.4-2.3,15.4-9.4c-0.1-3.8,1.1-7.4,3.5-10.4c2.1-2.8,5-5.9,1.7-10.1c-6.6-8.3-6.2-17.3-1.8-26.4
	C150.8,85.1,153.1,79,152.5,73.1L152.5,73.1z"/>
<path class="st1" d="M152.5,73.1c0.6,6-1.7,12-4.6,18c-4.3,9.2-4.8,18.1,1.8,26.4c3.4,4.2,0.4,7.3-1.7,10.1
	c-2.4,2.9-3.6,6.6-3.5,10.4c0,7.1-7.6,11.6-15.4,9.4c-1.5-0.4-2.9-2.2-4.3-0.4s-0.8,3.5-0.1,5.1c1.8,4.3,3,8.9,3.4,13.6
	c0.4,3.6-4.5,8-8.1,7.5c-1.7-0.2-1.2-1.5-1.3-2.4c-0.2-2,0.1-4.1-3-4c-2.7,0.1-3.4,1.5-3.3,3.9c0.3,4.3-2.9,4.5-5.8,4.7
	s-4.7-1.3-4.8-4.5c-0.1-1.5,0.5-3.6-2.1-3.6s-2.7,1.9-2.5,3.8c0.4,5.3-3.6,4.1-6.3,3.9s-6.5-0.2-5.8-5c0.3-1.6,1.8-4.2-1.8-4.3
	c-2.9-0.1-2.5,2-2.4,3.7c0.2,2.8-0.8,3.4-3.5,2.7c-6.3-1.7-9.8-10.9-6-16.9c1.3-2.1,3.6-3.6,1.3-6.5c-2-2.5-4-1.4-6.3-0.8
	c-5.3,1.4-10.8-1.8-12.2-7.1l0,0c-0.2-0.8-0.3-1.6-0.3-2.5c-0.2-4.2-2.7-7.4-4.4-10.9c-1.9-3.8-2.3-7.5,0.3-10.7
	c6.3-7.8,4.2-15.9,1.3-24C47.4,82,44.9,71.5,48,60.2c6-21.7,31.5-39.1,53.8-36.2c9.3,1.2,18.4,3.9,26.9,8.1
	C143.7,39.5,152.5,54.3,152.5,73.1z M126.7,133.3c6.9,0.1,9.5-3.1,10.7-12c0.4-2.6,1.6-5.4-1.7-7.2s-6.6-3.7-10.5-0.8
	c-2.9,2.2-6.6,3-10.1,3.7c-2.8,0.7-5.4,2-7.5,4c-2.1,1.7-2.3,3,0,4.6C113.2,129.8,119.8,132.5,126.7,133.3z M72.8,133
	c5.6-0.4,11.2-2.9,16.3-6.8c1.5-1.2,3.8-2.3,2.6-4.7c-0.9-1.9-2.4-3.5-5-3.4c-5.9,0.2-10.9-2.2-15.6-5.3c-1.7-1.4-4.1-1.5-5.9-0.3
	c-4.4,2.5-6.2,6.6-4.9,11.8C61.7,129.8,65.9,132.9,72.8,133z M106.7,140.4c0-1.3-6.7-10.4-7.9-10.1c-3.3,0.8-3.3,4.3-4.7,6.6
	c-0.7,1.2-1.3,2.5-1.8,3.9c-0.5,1.3-1.8,2.6-0.2,3.8s2.7,0.2,3.8-0.8c1.6-1.5,3-3.4,5-0.2c0.8,1.3,2.7,0.8,4,0.1
	c1.3-0.5,2.1-1.9,2-3.3H106.7z"/>
<path class="st2" d="M126.7,133.3c-6.9-0.9-13.4-3.5-19-7.6c-2.3-1.6-2.1-2.9,0-4.6c2.1-2,4.7-3.3,7.5-4c3.5-0.7,7.2-1.4,10.1-3.7
	c3.9-3,7.1-1,10.5,0.8s2.1,4.5,1.7,7.2C136.2,130.2,133.6,133.5,126.7,133.3z"/>
<path class="st2" d="M72.8,133c-6.9-0.1-11-3.2-12.5-8.7c-1.3-5.2,0.5-9.4,4.8-11.8c1.8-1.2,4.2-1.1,5.9,0.3
	c4.7,3.1,9.8,5.5,15.6,5.3c2.6-0.1,4.1,1.5,5,3.4c1.2,2.4-1.1,3.5-2.6,4.7C84.1,130.1,78.4,132.7,72.8,133z"/>
<path class="st3" d="M106.7,140.4c0.1,1.4-0.7,2.8-2,3.3c-1.3,0.7-3.2,1.1-4-0.1c-2-3.3-3.4-1.3-5,0.2c-1.1,1.1-2.4,1.9-3.8,0.8
	s-0.3-2.6,0.2-3.8c0.5-1.3,1.2-2.6,1.9-3.9c1.4-2.3,1.5-5.8,4.7-6.6C100,130,106.7,139.2,106.7,140.4z"/>
</svg>
