<?xml version="1.0" encoding="UTF-8"?>
<!DOCTYPE svg PUBLIC "-//W3C//DTD SVG 1.1//EN" "http://www.w3.org/Graphics/SVG/1.1/DTD/svg11.dtd">
<!-- Creator: CorelDRAW 2020 (64-Bit) -->
<svg xmlns="http://www.w3.org/2000/svg" xml:space="preserve" width="158.75mm" height="158.75mm" version="1.1" style="shape-rendering:geometricPrecision; text-rendering:geometricPrecision; image-rendering:optimizeQuality; fill-rule:evenodd; clip-rule:evenodd"
viewBox="0 0 15875 15875"
 xmlns:xlink="http://www.w3.org/1999/xlink"
 xmlns:xodm="http://www.corel.com/coreldraw/odm/2003">
 <defs>
  <style type="text/css">
   <![CDATA[
    .str0 {stroke:#FEFEFE;stroke-width:20;stroke-miterlimit:22.9256}
    .fil1 {fill:#10CF83}
    .fil0 {fill:#F8F8F8}
   ]]>
  </style>
 </defs>
 <g id="Слой_x0020_1">
  <metadata id="CorelCorpID_0Corel-Layer"/>
  <polygon class="fil0 str0" points="1744.96,1836.43 14741.3,1836.43 14741.3,14197.77 1744.96,14197.77 "/>
  <path class="fil1" d="M2645.83 0c-1461.25,0 -2645.83,1184.58 -2645.83,2645.83l0 10583.34c0,1461.29 1184.58,2645.83 2645.83,2645.83l10583.34 0c1461.29,0 2645.83,-1184.54 2645.83,-2645.83l0 -10583.34c0,-1461.25 -1184.54,-2645.83 -2645.83,-2645.83l-10583.34 0zm10406.95 4938.89c292.27,-389.67 213.25,-942.47 -176.39,-1234.72 -389.64,-292.25 -942.45,-213.28 -1234.72,176.39l-4681.54 6242.05 -1926.78 -1926.79c-344.42,-344.4 -902.83,-344.4 -1247.26,0 -344.42,344.4 -344.42,902.85 0,1247.25l2645.84 2645.83c180.8,180.8 431.1,274.2 686.16,256.12 255.05,-18.17 489.65,-146.05 643.02,-350.58l5291.67 -7055.55z"/>
 </g>
</svg>
