<svg width="519" height="192" xmlns="http://www.w3.org/2000/svg">

 <g>
  <title>background</title>
  <rect fill="none" id="canvas_background" height="194" width="521" y="-1" x="-1"/>
 </g>
 <g>
  <title>Layer 1</title>
  <path id="svg_1" fill="#E21B1B" d="m496.392,185.76l-268.664,0c-10.256,-0.032 -18.568,-8.344 -18.6,-18.6l0,-146.32c0.032,-10.256 8.344,-18.568 18.6,-18.6l268.672,0c10.256,0.032 18.568,8.344 18.6,18.6l0,146.328c-0.04,10.256 -8.352,18.56 -18.608,18.592z"/>
  <g id="svg_2">
   <path id="svg_3" fill="#FFFFFF" d="m265.224,73.568l-21.704,0l0,-11.608l57.6,0l0,11.608l-21.96,0l0,64.592l-13.936,0l0,-64.592z"/>
   <path id="svg_4" fill="#FFFFFF" d="m353.12,121.624c0,6.552 0.232,12 0.448,16.52l-12.224,0l-0.68,-8.392l-0.2,0c-3.736,6.136 -10.472,9.8 -17.656,9.6c-10.072,0 -19.2,-6.008 -19.2,-24l0,-32.296l13.872,0l0,29.976c0,9.152 2.968,15.096 10.304,15.096c6.376,-0.184 11.44,-5.424 11.408,-11.808l0,-33.248l13.92,0l0.008,38.552z"/>
   <path id="svg_5" fill="#FFFFFF" d="m367.704,138.152c0.232,-3.752 0.48,-9.824 0.48,-15.496l0,-64.8l13.888,0l0,32.8l0.232,0c3.92,-5.816 10.6,-9.152 17.6,-8.8c13.48,0 23.072,11.2 22.976,27.928c0,19.8 -12.568,29.6 -24.984,29.6c-7.128,0.36 -13.856,-3.304 -17.408,-9.496l-0.232,0l-0.68,8.256l-11.872,0.008zm14.4,-22.736c-0.016,1.104 0.104,2.2 0.344,3.272c1.408,5.68 6.472,9.688 12.32,9.76c8.704,0 14.032,-7.032 14.032,-18.088c0,-9.76 -4.64,-17.688 -13.92,-17.688c-5.944,0.2 -11,4.376 -12.32,10.176c-0.272,1.184 -0.416,2.4 -0.448,3.616l-0.008,8.952l0,0z"/>
   <path id="svg_6" fill="#FFFFFF" d="m444.168,114.528c0.304,8.256 7.248,14.704 15.504,14.4c0.488,-0.016 0.976,-0.056 1.456,-0.128c5.2,0.12 10.376,-0.736 15.256,-2.528l2.048,9.6c-6.144,2.344 -12.68,3.504 -19.256,3.416c-14.336,1.304 -27.024,-9.264 -28.328,-23.6c-0.128,-1.416 -0.144,-2.84 -0.04,-4.256c-1.272,-15.024 9.872,-28.232 24.896,-29.504c0.672,-0.056 1.336,-0.088 2.008,-0.096c17.888,0 23.76,14.744 23.76,26.832c0.016,1.968 -0.136,3.936 -0.448,5.88l-36.856,0l0,-0.016zm24.2,-9.76c0.88,-6.488 -3.664,-12.464 -10.152,-13.344c-0.424,-0.056 -0.848,-0.096 -1.28,-0.104c-7.136,0.424 -12.736,6.296 -12.8,13.448l24.232,0z"/>
  </g>
  <path id="svg_7" d="m27.096,138.152l0,-31.744l-24.096,-44.448l15.84,0l9.152,19.52c2.624,5.664 4.544,9.976 6.592,15.16l0.2,0c1.944,-4.856 4.064,-9.6 6.688,-15.16l9.152,-19.52l15.696,0l-25.336,44.096l0,32.088l-13.888,0.008l0,0z"/>
  <path id="svg_8" d="m115.992,110.096c1.136,15.008 -10.112,28.088 -25.12,29.224c-1.048,0.08 -2.096,0.096 -3.136,0.056c-14.672,0.584 -27.04,-10.848 -27.624,-25.52c-0.04,-0.936 -0.024,-1.88 0.04,-2.816c-1.136,-14.976 10.096,-28.04 25.072,-29.176c1.144,-0.088 2.288,-0.104 3.432,-0.04c14.568,-0.552 26.832,10.808 27.384,25.376c0.04,0.968 0.024,1.936 -0.048,2.896zm-41.48,0.616c0,10.584 5.184,18.64 13.656,18.64c7.928,0 13.48,-7.784 13.48,-18.912c0,-8.6 -3.864,-18.4 -13.344,-18.4c-9.832,-0.04 -13.792,9.448 -13.792,18.672l0,0z"/>
  <path id="svg_9" d="m176.72,121.624c0,6.552 0.232,12 0.448,16.52l-12.224,0l-0.68,-8.392l-0.208,0c-3.736,6.136 -10.472,9.8 -17.656,9.6c-10.072,0 -19.2,-6.008 -19.2,-24l0,-32.296l13.888,0l0,29.976c0,9.152 2.968,15.096 10.304,15.096c6.376,-0.184 11.44,-5.424 11.408,-11.808l0,-33.248l13.92,0c0,0 0,38.552 0,38.552z"/>
  <g id="svg_10">
   <g id="svg_11">
    <path id="svg_12" opacity="0.2" fill="#FFFFFF" d="m209.128,27.792l0,125.408c0.032,2.336 0.416,4.648 1.144,6.864l185.144,-155.824l-186.176,0"/>
   </g>
  </g>
  <g id="svg_13"/>
  <g id="svg_14"/>
  <g id="svg_15"/>
  <g id="svg_16"/>
  <g id="svg_17"/>
  <g id="svg_18"/>
  <g id="svg_19"/>
  <g id="svg_20"/>
  <g id="svg_21"/>
  <g id="svg_22"/>
  <g id="svg_23"/>
  <g id="svg_24"/>
  <g id="svg_25"/>
  <g id="svg_26"/>
  <g id="svg_27"/>
 </g>
</svg>